<svg width="301" height="453" viewBox="0 0 301 453" fill="none" xmlns="http://www.w3.org/2000/svg">
<path d="M78.8379 82.5352H80.8789L81.1133 92.5547H78.6035L78.8379 82.5352ZM81.1719 79.5176C81.1719 79.8822 81.0547 80.1882 80.8203 80.4355C80.5859 80.6764 80.2572 80.7969 79.834 80.7969C79.4043 80.7969 79.0723 80.6764 78.8379 80.4355C78.6035 80.1882 78.4863 79.8822 78.4863 79.5176C78.4863 79.1595 78.6035 78.86 78.8379 78.6191C79.0723 78.3717 79.4043 78.248 79.834 78.248C80.2572 78.248 80.5859 78.3717 80.8203 78.6191C81.0547 78.86 81.1719 79.1595 81.1719 79.5176ZM95.3551 89H92.8941V82.6816H86.5367V89H84.066V74.7812H86.5367V80.6992H92.8941V74.7812H95.3551V89ZM97.7609 83.6191C97.7609 82.584 97.966 81.653 98.3762 80.8262C98.7863 79.9928 99.3625 79.3548 100.105 78.9121C100.847 78.4629 101.7 78.2383 102.663 78.2383C104.089 78.2383 105.245 78.6973 106.13 79.6152C107.022 80.5332 107.504 81.7507 107.575 83.2676L107.585 83.8242C107.585 84.8659 107.383 85.7969 106.98 86.6172C106.583 87.4375 106.01 88.0723 105.261 88.5215C104.519 88.9707 103.659 89.1953 102.683 89.1953C101.192 89.1953 99.9973 88.7005 99.0988 87.7109C98.2069 86.7148 97.7609 85.39 97.7609 83.7363V83.6191ZM100.134 83.8242C100.134 84.9115 100.359 85.7643 100.808 86.3828C101.257 86.9948 101.882 87.3008 102.683 87.3008C103.484 87.3008 104.105 86.9883 104.548 86.3633C104.997 85.7383 105.222 84.8236 105.222 83.6191C105.222 82.5514 104.991 81.7051 104.529 81.0801C104.073 80.4551 103.451 80.1426 102.663 80.1426C101.889 80.1426 101.273 80.4518 100.818 81.0703C100.362 81.6823 100.134 82.6003 100.134 83.8242ZM112.266 89H109.893V74H112.266V89ZM121.323 89C121.218 88.7982 121.127 88.4694 121.049 88.0137C120.294 88.8014 119.37 89.1953 118.276 89.1953C117.215 89.1953 116.349 88.8926 115.678 88.2871C115.008 87.6816 114.672 86.9329 114.672 86.041C114.672 84.9147 115.089 84.0521 115.922 83.4531C116.762 82.8477 117.96 82.5449 119.516 82.5449H120.971V81.8516C120.971 81.3047 120.818 80.8685 120.512 80.543C120.206 80.2109 119.741 80.0449 119.116 80.0449C118.575 80.0449 118.133 80.1816 117.787 80.4551C117.442 80.722 117.27 81.0638 117.27 81.4805H114.897C114.897 80.901 115.089 80.3607 115.473 79.8594C115.857 79.3516 116.378 78.9544 117.036 78.668C117.7 78.3815 118.439 78.2383 119.252 78.2383C120.489 78.2383 121.476 78.5508 122.211 79.1758C122.947 79.7943 123.325 80.6667 123.344 81.793V86.5586C123.344 87.5091 123.478 88.2676 123.745 88.834V89H121.323ZM118.715 87.291C119.184 87.291 119.623 87.1771 120.034 86.9492C120.45 86.7214 120.763 86.4154 120.971 86.0312V84.0391H119.692C118.813 84.0391 118.152 84.1921 117.709 84.498C117.267 84.804 117.045 85.237 117.045 85.7969C117.045 86.2526 117.195 86.6172 117.495 86.8906C117.801 87.1576 118.207 87.291 118.715 87.291ZM139.533 82.9746H133.81V89H131.339V74.7812H140.373V76.7734H133.81V81.002H139.533V82.9746ZM147.534 80.6016C147.222 80.5495 146.9 80.5234 146.568 80.5234C145.48 80.5234 144.748 80.9401 144.37 81.7734V89H141.997V78.4336H144.263L144.321 79.6152C144.894 78.6973 145.689 78.2383 146.704 78.2383C147.043 78.2383 147.323 78.2839 147.544 78.375L147.534 80.6016ZM155.204 89C155.1 88.7982 155.009 88.4694 154.93 88.0137C154.175 88.8014 153.251 89.1953 152.157 89.1953C151.096 89.1953 150.23 88.8926 149.559 88.2871C148.889 87.6816 148.554 86.9329 148.554 86.041C148.554 84.9147 148.97 84.0521 149.804 83.4531C150.643 82.8477 151.841 82.5449 153.397 82.5449H154.852V81.8516C154.852 81.3047 154.699 80.8685 154.393 80.543C154.087 80.2109 153.622 80.0449 152.997 80.0449C152.457 80.0449 152.014 80.1816 151.669 80.4551C151.324 80.722 151.151 81.0638 151.151 81.4805H148.778C148.778 80.901 148.97 80.3607 149.354 79.8594C149.738 79.3516 150.259 78.9544 150.917 78.668C151.581 78.3815 152.32 78.2383 153.134 78.2383C154.371 78.2383 155.357 78.5508 156.093 79.1758C156.828 79.7943 157.206 80.6667 157.225 81.793V86.5586C157.225 87.5091 157.359 88.2676 157.626 88.834V89H155.204ZM152.596 87.291C153.065 87.291 153.505 87.1771 153.915 86.9492C154.332 86.7214 154.644 86.4154 154.852 86.0312V84.0391H153.573C152.694 84.0391 152.033 84.1921 151.591 84.498C151.148 84.804 150.927 85.237 150.927 85.7969C150.927 86.2526 151.076 86.6172 151.376 86.8906C151.682 87.1576 152.089 87.291 152.596 87.291ZM162.063 78.4336L162.131 79.6543C162.912 78.7103 163.938 78.2383 165.207 78.2383C167.408 78.2383 168.528 79.498 168.567 82.0176V89H166.194V82.1543C166.194 81.4837 166.047 80.9889 165.754 80.6699C165.468 80.3444 164.996 80.1816 164.338 80.1816C163.381 80.1816 162.668 80.6146 162.2 81.4805V89H159.827V78.4336H162.063ZM175.484 87.3008C176.077 87.3008 176.568 87.1283 176.959 86.7832C177.35 86.4382 177.558 86.0117 177.584 85.5039H179.82C179.794 86.1615 179.589 86.7767 179.205 87.3496C178.821 87.916 178.3 88.3652 177.643 88.6973C176.985 89.0293 176.275 89.1953 175.514 89.1953C174.036 89.1953 172.864 88.7168 171.998 87.7598C171.132 86.8027 170.699 85.4811 170.699 83.7949V83.5508C170.699 81.9427 171.129 80.6569 171.988 79.6934C172.848 78.7233 174.02 78.2383 175.504 78.2383C176.76 78.2383 177.783 78.6061 178.57 79.3418C179.365 80.071 179.781 81.0312 179.82 82.2227H177.584C177.558 81.6172 177.35 81.1191 176.959 80.7285C176.575 80.3379 176.083 80.1426 175.484 80.1426C174.716 80.1426 174.124 80.4225 173.707 80.9824C173.29 81.5358 173.079 82.3789 173.072 83.5117V83.8926C173.072 85.0384 173.277 85.8945 173.688 86.4609C174.104 87.0208 174.703 87.3008 175.484 87.3008ZM184.287 89H181.914V78.4336H184.287V89ZM181.767 75.6895C181.767 75.3249 181.881 75.0221 182.109 74.7812C182.343 74.5404 182.675 74.4199 183.105 74.4199C183.535 74.4199 183.867 74.5404 184.101 74.7812C184.336 75.0221 184.453 75.3249 184.453 75.6895C184.453 76.0475 184.336 76.347 184.101 76.5879C183.867 76.8223 183.535 76.9395 183.105 76.9395C182.675 76.9395 182.343 76.8223 182.109 76.5879C181.881 76.347 181.767 76.0475 181.767 75.6895ZM192.952 86.1289C192.952 85.7057 192.777 85.3835 192.425 85.1621C192.08 84.9408 191.504 84.7454 190.696 84.5762C189.889 84.4069 189.215 84.1921 188.675 83.9316C187.49 83.3587 186.898 82.5286 186.898 81.4414C186.898 80.5299 187.282 79.7682 188.05 79.1562C188.818 78.5443 189.795 78.2383 190.98 78.2383C192.243 78.2383 193.262 78.5508 194.036 79.1758C194.818 79.8008 195.208 80.6113 195.208 81.6074H192.835C192.835 81.1517 192.666 80.7741 192.327 80.4746C191.989 80.1686 191.54 80.0156 190.98 80.0156C190.459 80.0156 190.032 80.1361 189.7 80.377C189.375 80.6178 189.212 80.9401 189.212 81.3438C189.212 81.7083 189.365 81.9915 189.671 82.1934C189.977 82.3952 190.596 82.6003 191.527 82.8086C192.458 83.0104 193.187 83.2546 193.714 83.541C194.248 83.821 194.642 84.1595 194.896 84.5566C195.156 84.9538 195.286 85.4355 195.286 86.002C195.286 86.9525 194.892 87.724 194.105 88.3164C193.317 88.9023 192.285 89.1953 191.009 89.1953C190.143 89.1953 189.372 89.0391 188.695 88.7266C188.017 88.4141 187.49 87.9844 187.113 87.4375C186.735 86.8906 186.546 86.3014 186.546 85.6699H188.851C188.883 86.2298 189.095 86.6628 189.486 86.9688C189.876 87.2682 190.394 87.418 191.038 87.418C191.663 87.418 192.139 87.3008 192.464 87.0664C192.79 86.8255 192.952 86.513 192.952 86.1289ZM201.852 87.3008C202.445 87.3008 202.936 87.1283 203.327 86.7832C203.718 86.4382 203.926 86.0117 203.952 85.5039H206.188C206.162 86.1615 205.957 86.7767 205.573 87.3496C205.189 87.916 204.668 88.3652 204.011 88.6973C203.353 89.0293 202.643 89.1953 201.882 89.1953C200.404 89.1953 199.232 88.7168 198.366 87.7598C197.5 86.8027 197.067 85.4811 197.067 83.7949V83.5508C197.067 81.9427 197.497 80.6569 198.356 79.6934C199.216 78.7233 200.387 78.2383 201.872 78.2383C203.128 78.2383 204.151 78.6061 204.938 79.3418C205.733 80.071 206.149 81.0312 206.188 82.2227H203.952C203.926 81.6172 203.718 81.1191 203.327 80.7285C202.943 80.3379 202.451 80.1426 201.852 80.1426C201.084 80.1426 200.492 80.4225 200.075 80.9824C199.658 81.5358 199.447 82.3789 199.44 83.5117V83.8926C199.44 85.0384 199.645 85.8945 200.055 86.4609C200.472 87.0208 201.071 87.3008 201.852 87.3008ZM207.686 83.6191C207.686 82.584 207.891 81.653 208.301 80.8262C208.711 79.9928 209.288 79.3548 210.03 78.9121C210.772 78.4629 211.625 78.2383 212.588 78.2383C214.014 78.2383 215.17 78.6973 216.055 79.6152C216.947 80.5332 217.429 81.7507 217.5 83.2676L217.51 83.8242C217.51 84.8659 217.308 85.7969 216.905 86.6172C216.508 87.4375 215.935 88.0723 215.186 88.5215C214.444 88.9707 213.584 89.1953 212.608 89.1953C211.117 89.1953 209.922 88.7005 209.024 87.7109C208.132 86.7148 207.686 85.39 207.686 83.7363V83.6191ZM210.059 83.8242C210.059 84.9115 210.284 85.7643 210.733 86.3828C211.182 86.9948 211.807 87.3008 212.608 87.3008C213.409 87.3008 214.03 86.9883 214.473 86.3633C214.922 85.7383 215.147 84.8236 215.147 83.6191C215.147 82.5514 214.916 81.7051 214.454 81.0801C213.998 80.4551 213.376 80.1426 212.588 80.1426C211.814 80.1426 211.198 80.4518 210.743 81.0703C210.287 81.6823 210.059 82.6003 210.059 83.8242ZM222.182 84.8105H220.141L219.916 74.7812H222.416L222.182 84.8105ZM219.848 87.877C219.848 87.5059 219.968 87.1999 220.209 86.959C220.45 86.7116 220.779 86.5879 221.195 86.5879C221.612 86.5879 221.941 86.7116 222.182 86.959C222.423 87.1999 222.543 87.5059 222.543 87.877C222.543 88.235 222.426 88.5345 222.191 88.7754C221.957 89.0163 221.625 89.1367 221.195 89.1367C220.766 89.1367 220.434 89.0163 220.199 88.7754C219.965 88.5345 219.848 88.235 219.848 87.877Z" fill="black"/>
<path d="M30.8484 118.031H26.0828L25.0125 121H23.4656L27.8094 109.625H29.1219L33.4734 121H31.9344L30.8484 118.031ZM26.5359 116.797H30.4031L28.4656 111.477L26.5359 116.797ZM40.0531 120.164C39.4906 120.826 38.6651 121.156 37.5766 121.156C36.6755 121.156 35.988 120.896 35.5141 120.375C35.0453 119.849 34.8083 119.073 34.8031 118.047V112.547H36.2484V118.008C36.2484 119.289 36.7693 119.93 37.8109 119.93C38.9151 119.93 39.6495 119.518 40.0141 118.695V112.547H41.4594V121H40.0844L40.0531 120.164ZM38.8812 109H40.6312L38.5375 111.297H37.3734L38.8812 109ZM45.1797 112.547L45.2266 113.609C45.8724 112.797 46.7161 112.391 47.7578 112.391C49.5443 112.391 50.4453 113.398 50.4609 115.414V121H49.0156V115.406C49.0104 114.797 48.8698 114.346 48.5937 114.055C48.3229 113.763 47.8984 113.617 47.3203 113.617C46.8516 113.617 46.4401 113.742 46.0859 113.992C45.7318 114.242 45.4557 114.57 45.2578 114.977V121H43.8125V112.547H45.1797ZM58.2766 112.547L58.3234 113.609C58.9693 112.797 59.813 112.391 60.8547 112.391C62.6411 112.391 63.5422 113.398 63.5578 115.414V121H62.1125V115.406C62.1073 114.797 61.9667 114.346 61.6906 114.055C61.4198 113.763 60.9953 113.617 60.4172 113.617C59.9484 113.617 59.537 113.742 59.1828 113.992C58.8286 114.242 58.5526 114.57 58.3547 114.977V121H56.9094V112.547H58.2766ZM65.5047 116.695C65.5047 115.867 65.6661 115.122 65.9891 114.461C66.3172 113.799 66.7703 113.289 67.3484 112.93C67.9318 112.57 68.5958 112.391 69.3406 112.391C70.4917 112.391 71.4214 112.789 72.1297 113.586C72.8432 114.383 73.2 115.443 73.2 116.766V116.867C73.2 117.69 73.0411 118.43 72.7234 119.086C72.4109 119.737 71.9604 120.245 71.3719 120.609C70.7885 120.974 70.1167 121.156 69.3562 121.156C68.2104 121.156 67.2807 120.758 66.5672 119.961C65.8589 119.164 65.5047 118.109 65.5047 116.797V116.695ZM66.9578 116.867C66.9578 117.805 67.174 118.557 67.6062 119.125C68.0437 119.693 68.6271 119.977 69.3562 119.977C70.0906 119.977 70.674 119.69 71.1062 119.117C71.5385 118.539 71.7547 117.732 71.7547 116.695C71.7547 115.768 71.5333 115.018 71.0906 114.445C70.6531 113.867 70.0698 113.578 69.3406 113.578C68.6271 113.578 68.0516 113.862 67.6141 114.43C67.1766 114.997 66.9578 115.81 66.9578 116.867ZM80.7266 113.57C81.3672 112.784 82.2005 112.391 83.2266 112.391C85.013 112.391 85.9141 113.398 85.9297 115.414V121H84.4844V115.406C84.4792 114.797 84.3385 114.346 84.0625 114.055C83.7917 113.763 83.3672 113.617 82.7891 113.617C82.3203 113.617 81.9089 113.742 81.5547 113.992C81.2005 114.242 80.9245 114.57 80.7266 114.977V121H79.2812V109H80.7266V113.57ZM93.4625 121C93.3792 120.833 93.3115 120.536 93.2594 120.109C92.5875 120.807 91.7854 121.156 90.8531 121.156C90.0198 121.156 89.3349 120.922 88.7984 120.453C88.2672 119.979 88.0016 119.38 88.0016 118.656C88.0016 117.776 88.3349 117.094 89.0016 116.609C89.6734 116.12 90.6161 115.875 91.8297 115.875H93.2359V115.211C93.2359 114.706 93.0849 114.305 92.7828 114.008C92.4807 113.706 92.0354 113.555 91.4469 113.555C90.9312 113.555 90.499 113.685 90.15 113.945C89.801 114.206 89.6266 114.521 89.6266 114.891H88.1734C88.1734 114.469 88.3219 114.062 88.6187 113.672C88.9208 113.276 89.3271 112.964 89.8375 112.734C90.3531 112.505 90.9182 112.391 91.5328 112.391C92.5068 112.391 93.2698 112.635 93.8219 113.125C94.374 113.609 94.6604 114.279 94.6812 115.133V119.023C94.6812 119.799 94.7802 120.417 94.9781 120.875V121H93.4625ZM91.0641 119.898C91.5172 119.898 91.9469 119.781 92.3531 119.547C92.7594 119.312 93.0536 119.008 93.2359 118.633V116.898H92.1031C90.3323 116.898 89.4469 117.417 89.4469 118.453C89.4469 118.906 89.5979 119.26 89.9 119.516C90.2021 119.771 90.5901 119.898 91.0641 119.898ZM99.7375 118.883L101.706 112.547H103.253L99.8547 122.305C99.3286 123.711 98.4927 124.414 97.3469 124.414L97.0734 124.391L96.5344 124.289V123.117L96.925 123.148C97.4146 123.148 97.7948 123.049 98.0656 122.852C98.3417 122.654 98.5682 122.292 98.7453 121.766L99.0656 120.906L96.05 112.547H97.6281L99.7375 118.883ZM115.959 116.867C115.959 118.154 115.665 119.19 115.077 119.977C114.488 120.763 113.691 121.156 112.686 121.156C111.66 121.156 110.853 120.831 110.264 120.18V124.25H108.819V112.547H110.139L110.209 113.484C110.798 112.755 111.616 112.391 112.662 112.391C113.678 112.391 114.48 112.773 115.069 113.539C115.662 114.305 115.959 115.37 115.959 116.734V116.867ZM114.514 116.703C114.514 115.75 114.311 114.997 113.905 114.445C113.498 113.893 112.941 113.617 112.233 113.617C111.358 113.617 110.702 114.005 110.264 114.781V118.82C110.696 119.591 111.358 119.977 112.248 119.977C112.941 119.977 113.491 119.703 113.897 119.156C114.308 118.604 114.514 117.786 114.514 116.703ZM122.039 113.844C121.82 113.807 121.583 113.789 121.328 113.789C120.38 113.789 119.737 114.193 119.398 115V121H117.953V112.547H119.359L119.383 113.523C119.857 112.768 120.529 112.391 121.398 112.391C121.68 112.391 121.893 112.427 122.039 112.5V113.844ZM122.986 116.695C122.986 115.867 123.147 115.122 123.47 114.461C123.798 113.799 124.252 113.289 124.83 112.93C125.413 112.57 126.077 112.391 126.822 112.391C127.973 112.391 128.903 112.789 129.611 113.586C130.324 114.383 130.681 115.443 130.681 116.766V116.867C130.681 117.69 130.522 118.43 130.205 119.086C129.892 119.737 129.442 120.245 128.853 120.609C128.27 120.974 127.598 121.156 126.837 121.156C125.692 121.156 124.762 120.758 124.048 119.961C123.34 119.164 122.986 118.109 122.986 116.797V116.695ZM124.439 116.867C124.439 117.805 124.655 118.557 125.087 119.125C125.525 119.693 126.108 119.977 126.837 119.977C127.572 119.977 128.155 119.69 128.587 119.117C129.02 118.539 129.236 117.732 129.236 116.695C129.236 115.768 129.015 115.018 128.572 114.445C128.134 113.867 127.551 113.578 126.822 113.578C126.108 113.578 125.533 113.862 125.095 114.43C124.658 114.997 124.439 115.81 124.439 116.867ZM132.292 116.703C132.292 115.406 132.599 114.365 133.214 113.578C133.829 112.786 134.633 112.391 135.628 112.391C136.618 112.391 137.402 112.729 137.98 113.406V109H139.425V121H138.097L138.027 120.094C137.448 120.802 136.644 121.156 135.612 121.156C134.633 121.156 133.834 120.755 133.214 119.953C132.599 119.151 132.292 118.104 132.292 116.812V116.703ZM133.737 116.867C133.737 117.826 133.935 118.576 134.331 119.117C134.727 119.659 135.274 119.93 135.972 119.93C136.889 119.93 137.558 119.518 137.98 118.695V114.812C137.547 114.016 136.883 113.617 135.987 113.617C135.279 113.617 134.727 113.891 134.331 114.438C133.935 114.984 133.737 115.794 133.737 116.867ZM147.044 120.164C146.481 120.826 145.656 121.156 144.567 121.156C143.666 121.156 142.979 120.896 142.505 120.375C142.036 119.849 141.799 119.073 141.794 118.047V112.547H143.239V118.008C143.239 119.289 143.76 119.93 144.802 119.93C145.906 119.93 146.64 119.518 147.005 118.695V112.547H148.45V121H147.075L147.044 120.164ZM154.194 119.977C154.709 119.977 155.16 119.82 155.545 119.508C155.931 119.195 156.144 118.805 156.186 118.336H157.553C157.527 118.82 157.36 119.281 157.053 119.719C156.746 120.156 156.334 120.505 155.819 120.766C155.308 121.026 154.767 121.156 154.194 121.156C153.043 121.156 152.126 120.773 151.444 120.008C150.767 119.237 150.428 118.185 150.428 116.852V116.609C150.428 115.786 150.579 115.055 150.881 114.414C151.183 113.773 151.616 113.276 152.178 112.922C152.746 112.568 153.415 112.391 154.186 112.391C155.134 112.391 155.92 112.674 156.545 113.242C157.176 113.81 157.511 114.547 157.553 115.453H156.186C156.144 114.906 155.936 114.458 155.561 114.109C155.191 113.755 154.733 113.578 154.186 113.578C153.452 113.578 152.881 113.844 152.475 114.375C152.074 114.901 151.873 115.664 151.873 116.664V116.938C151.873 117.911 152.074 118.661 152.475 119.188C152.876 119.714 153.449 119.977 154.194 119.977ZM161.289 110.5V112.547H162.867V113.664H161.289V118.906C161.289 119.245 161.359 119.5 161.5 119.672C161.641 119.839 161.88 119.922 162.219 119.922C162.385 119.922 162.615 119.891 162.906 119.828V121C162.526 121.104 162.156 121.156 161.797 121.156C161.151 121.156 160.664 120.961 160.336 120.57C160.008 120.18 159.844 119.625 159.844 118.906V113.664H158.305V112.547H159.844V110.5H161.289ZM164.173 116.695C164.173 115.867 164.335 115.122 164.658 114.461C164.986 113.799 165.439 113.289 166.017 112.93C166.601 112.57 167.265 112.391 168.009 112.391C169.16 112.391 170.09 112.789 170.798 113.586C171.512 114.383 171.869 115.443 171.869 116.766V116.867C171.869 117.69 171.71 118.43 171.392 119.086C171.08 119.737 170.629 120.245 170.041 120.609C169.457 120.974 168.785 121.156 168.025 121.156C166.879 121.156 165.949 120.758 165.236 119.961C164.528 119.164 164.173 118.109 164.173 116.797V116.695ZM165.627 116.867C165.627 117.805 165.843 118.557 166.275 119.125C166.712 119.693 167.296 119.977 168.025 119.977C168.759 119.977 169.343 119.69 169.775 119.117C170.207 118.539 170.423 117.732 170.423 116.695C170.423 115.768 170.202 115.018 169.759 114.445C169.322 113.867 168.739 113.578 168.009 113.578C167.296 113.578 166.72 113.862 166.283 114.43C165.845 114.997 165.627 115.81 165.627 116.867ZM178.753 118.758C178.753 118.367 178.605 118.065 178.308 117.852C178.016 117.633 177.503 117.445 176.769 117.289C176.04 117.133 175.459 116.945 175.027 116.727C174.599 116.508 174.282 116.247 174.073 115.945C173.87 115.643 173.769 115.284 173.769 114.867C173.769 114.174 174.06 113.589 174.644 113.109C175.232 112.63 175.982 112.391 176.894 112.391C177.852 112.391 178.628 112.638 179.222 113.133C179.821 113.628 180.12 114.26 180.12 115.031H178.667C178.667 114.635 178.498 114.294 178.159 114.008C177.826 113.721 177.404 113.578 176.894 113.578C176.368 113.578 175.956 113.693 175.659 113.922C175.363 114.151 175.214 114.451 175.214 114.82C175.214 115.169 175.352 115.432 175.628 115.609C175.904 115.786 176.402 115.956 177.12 116.117C177.844 116.279 178.43 116.471 178.878 116.695C179.326 116.919 179.657 117.19 179.87 117.508C180.089 117.82 180.198 118.203 180.198 118.656C180.198 119.411 179.896 120.018 179.292 120.477C178.688 120.93 177.904 121.156 176.941 121.156C176.264 121.156 175.665 121.036 175.144 120.797C174.623 120.557 174.214 120.224 173.917 119.797C173.626 119.365 173.48 118.898 173.48 118.398H174.925C174.951 118.883 175.144 119.268 175.503 119.555C175.868 119.836 176.347 119.977 176.941 119.977C177.488 119.977 177.925 119.867 178.253 119.648C178.586 119.424 178.753 119.128 178.753 118.758ZM189.858 121.156C188.712 121.156 187.78 120.781 187.061 120.031C186.342 119.276 185.983 118.268 185.983 117.008V116.742C185.983 115.904 186.142 115.156 186.459 114.5C186.782 113.839 187.23 113.323 187.803 112.953C188.381 112.578 189.006 112.391 189.678 112.391C190.777 112.391 191.631 112.753 192.241 113.477C192.85 114.201 193.155 115.237 193.155 116.586V117.188H187.428C187.449 118.021 187.691 118.695 188.155 119.211C188.623 119.721 189.217 119.977 189.936 119.977C190.446 119.977 190.879 119.872 191.233 119.664C191.587 119.456 191.897 119.18 192.162 118.836L193.045 119.523C192.337 120.612 191.274 121.156 189.858 121.156ZM189.678 113.578C189.095 113.578 188.605 113.792 188.209 114.219C187.814 114.641 187.569 115.234 187.475 116H191.709V115.891C191.668 115.156 191.47 114.589 191.116 114.188C190.761 113.781 190.282 113.578 189.678 113.578ZM196.352 112.547L196.398 113.609C197.044 112.797 197.888 112.391 198.93 112.391C200.716 112.391 201.617 113.398 201.633 115.414V121H200.188V115.406C200.182 114.797 200.042 114.346 199.766 114.055C199.495 113.763 199.07 113.617 198.492 113.617C198.023 113.617 197.612 113.742 197.258 113.992C196.904 114.242 196.628 114.57 196.43 114.977V121H194.984V112.547H196.352ZM210.042 110.5V112.547H211.62V113.664H210.042V118.906C210.042 119.245 210.113 119.5 210.253 119.672C210.394 119.839 210.633 119.922 210.972 119.922C211.139 119.922 211.368 119.891 211.659 119.828V121C211.279 121.104 210.909 121.156 210.55 121.156C209.904 121.156 209.417 120.961 209.089 120.57C208.761 120.18 208.597 119.625 208.597 118.906V113.664H207.058V112.547H208.597V110.5H210.042ZM218.684 120.164C218.122 120.826 217.296 121.156 216.208 121.156C215.307 121.156 214.619 120.896 214.145 120.375C213.677 119.849 213.44 119.073 213.434 118.047V112.547H214.88V118.008C214.88 119.289 215.401 119.93 216.442 119.93C217.546 119.93 218.281 119.518 218.645 118.695V112.547H220.091V121H218.716L218.684 120.164ZM229.953 119.977C230.469 119.977 230.919 119.82 231.305 119.508C231.69 119.195 231.904 118.805 231.945 118.336H233.312C233.286 118.82 233.12 119.281 232.812 119.719C232.505 120.156 232.094 120.505 231.578 120.766C231.068 121.026 230.526 121.156 229.953 121.156C228.802 121.156 227.885 120.773 227.203 120.008C226.526 119.237 226.188 118.185 226.188 116.852V116.609C226.188 115.786 226.339 115.055 226.641 114.414C226.943 113.773 227.375 113.276 227.938 112.922C228.505 112.568 229.174 112.391 229.945 112.391C230.893 112.391 231.68 112.674 232.305 113.242C232.935 113.81 233.271 114.547 233.312 115.453H231.945C231.904 114.906 231.695 114.458 231.32 114.109C230.951 113.755 230.492 113.578 229.945 113.578C229.211 113.578 228.641 113.844 228.234 114.375C227.833 114.901 227.633 115.664 227.633 116.664V116.938C227.633 117.911 227.833 118.661 228.234 119.188C228.635 119.714 229.208 119.977 229.953 119.977ZM240.306 121C240.223 120.833 240.155 120.536 240.103 120.109C239.431 120.807 238.629 121.156 237.697 121.156C236.864 121.156 236.179 120.922 235.642 120.453C235.111 119.979 234.845 119.38 234.845 118.656C234.845 117.776 235.179 117.094 235.845 116.609C236.517 116.12 237.46 115.875 238.673 115.875H240.08V115.211C240.08 114.706 239.929 114.305 239.627 114.008C239.324 113.706 238.879 113.555 238.291 113.555C237.775 113.555 237.343 113.685 236.994 113.945C236.645 114.206 236.47 114.521 236.47 114.891H235.017C235.017 114.469 235.166 114.062 235.462 113.672C235.765 113.276 236.171 112.964 236.681 112.734C237.197 112.505 237.762 112.391 238.377 112.391C239.351 112.391 240.114 112.635 240.666 113.125C241.218 113.609 241.504 114.279 241.525 115.133V119.023C241.525 119.799 241.624 120.417 241.822 120.875V121H240.306ZM237.908 119.898C238.361 119.898 238.791 119.781 239.197 119.547C239.603 119.312 239.897 119.008 240.08 118.633V116.898H238.947C237.176 116.898 236.291 117.417 236.291 118.453C236.291 118.906 236.442 119.26 236.744 119.516C237.046 119.771 237.434 119.898 237.908 119.898ZM248.027 113.844C247.808 113.807 247.571 113.789 247.316 113.789C246.368 113.789 245.724 114.193 245.386 115V121H243.941V112.547H245.347L245.37 113.523C245.844 112.768 246.516 112.391 247.386 112.391C247.667 112.391 247.881 112.427 248.027 112.5V113.844ZM253.598 113.844C253.38 113.807 253.143 113.789 252.887 113.789C251.94 113.789 251.296 114.193 250.958 115V121H249.512V112.547H250.919L250.942 113.523C251.416 112.768 252.088 112.391 252.958 112.391C253.239 112.391 253.453 112.427 253.598 112.5V113.844ZM256.655 121H255.209V112.547H256.655V121ZM255.092 110.305C255.092 110.07 255.162 109.872 255.303 109.711C255.449 109.549 255.662 109.469 255.944 109.469C256.225 109.469 256.439 109.549 256.584 109.711C256.73 109.872 256.803 110.07 256.803 110.305C256.803 110.539 256.73 110.734 256.584 110.891C256.439 111.047 256.225 111.125 255.944 111.125C255.662 111.125 255.449 111.047 255.303 110.891C255.162 110.734 255.092 110.539 255.092 110.305ZM261.086 110.5V112.547H262.664V113.664H261.086V118.906C261.086 119.245 261.156 119.5 261.297 119.672C261.438 119.839 261.677 119.922 262.016 119.922C262.182 119.922 262.411 119.891 262.703 119.828V121C262.323 121.104 261.953 121.156 261.594 121.156C260.948 121.156 260.461 120.961 260.133 120.57C259.805 120.18 259.641 119.625 259.641 118.906V113.664H258.102V112.547H259.641V110.5H261.086ZM263.97 116.695C263.97 115.867 264.132 115.122 264.455 114.461C264.783 113.799 265.236 113.289 265.814 112.93C266.397 112.57 267.061 112.391 267.806 112.391C268.957 112.391 269.887 112.789 270.595 113.586C271.309 114.383 271.666 115.443 271.666 116.766V116.867C271.666 117.69 271.507 118.43 271.189 119.086C270.877 119.737 270.426 120.245 269.837 120.609C269.254 120.974 268.582 121.156 267.822 121.156C266.676 121.156 265.746 120.758 265.033 119.961C264.324 119.164 263.97 118.109 263.97 116.797V116.695ZM265.423 116.867C265.423 117.805 265.64 118.557 266.072 119.125C266.509 119.693 267.093 119.977 267.822 119.977C268.556 119.977 269.14 119.69 269.572 119.117C270.004 118.539 270.22 117.732 270.22 116.695C270.22 115.768 269.999 115.018 269.556 114.445C269.119 113.867 268.535 113.578 267.806 113.578C267.093 113.578 266.517 113.862 266.08 114.43C265.642 114.997 265.423 115.81 265.423 116.867ZM273.659 120.242C273.659 119.992 273.732 119.784 273.878 119.617C274.029 119.451 274.253 119.367 274.55 119.367C274.847 119.367 275.071 119.451 275.222 119.617C275.378 119.784 275.456 119.992 275.456 120.242C275.456 120.482 275.378 120.682 275.222 120.844C275.071 121.005 274.847 121.086 274.55 121.086C274.253 121.086 274.029 121.005 273.878 120.844C273.732 120.682 273.659 120.482 273.659 120.242ZM42.0641 135.398H39.3922V140H37.8844V128.625H41.65C42.9313 128.625 43.9156 128.917 44.6031 129.5C45.2958 130.083 45.6422 130.932 45.6422 132.047C45.6422 132.755 45.4495 133.372 45.0641 133.898C44.6839 134.424 44.1526 134.818 43.4703 135.078L46.1422 139.906V140H44.5328L42.0641 135.398ZM39.3922 134.172H41.6969C42.4417 134.172 43.0328 133.979 43.4703 133.594C43.913 133.208 44.1344 132.693 44.1344 132.047C44.1344 131.344 43.9234 130.805 43.5016 130.43C43.0849 130.055 42.4807 129.865 41.6891 129.859H39.3922V134.172ZM51.1828 140.156C50.037 140.156 49.1047 139.781 48.3859 139.031C47.6672 138.276 47.3078 137.268 47.3078 136.008V135.742C47.3078 134.904 47.4667 134.156 47.7844 133.5C48.1073 132.839 48.5552 132.323 49.1281 131.953C49.7063 131.578 50.3313 131.391 51.0031 131.391C52.1021 131.391 52.9563 131.753 53.5656 132.477C54.175 133.201 54.4797 134.237 54.4797 135.586V136.188H48.7531C48.774 137.021 49.0161 137.695 49.4797 138.211C49.9484 138.721 50.5422 138.977 51.2609 138.977C51.7714 138.977 52.2036 138.872 52.5578 138.664C52.912 138.456 53.2219 138.18 53.4875 137.836L54.3703 138.523C53.662 139.612 52.5995 140.156 51.1828 140.156ZM51.0031 132.578C50.4198 132.578 49.9302 132.792 49.5344 133.219C49.1385 133.641 48.8938 134.234 48.8 135H53.0344V134.891C52.9927 134.156 52.7948 133.589 52.4406 133.188C52.0865 132.781 51.6073 132.578 51.0031 132.578ZM59.7 138.977C60.2156 138.977 60.6661 138.82 61.0516 138.508C61.437 138.195 61.6505 137.805 61.6922 137.336H63.0594C63.0333 137.82 62.8667 138.281 62.5594 138.719C62.2521 139.156 61.8406 139.505 61.325 139.766C60.8146 140.026 60.2729 140.156 59.7 140.156C58.549 140.156 57.6323 139.773 56.95 139.008C56.2729 138.237 55.9344 137.185 55.9344 135.852V135.609C55.9344 134.786 56.0854 134.055 56.3875 133.414C56.6896 132.773 57.1219 132.276 57.6844 131.922C58.2521 131.568 58.9214 131.391 59.6922 131.391C60.6401 131.391 61.4266 131.674 62.0516 132.242C62.6818 132.81 63.0177 133.547 63.0594 134.453H61.6922C61.6505 133.906 61.4422 133.458 61.0672 133.109C60.6974 132.755 60.2391 132.578 59.6922 132.578C58.9578 132.578 58.3875 132.844 57.9813 133.375C57.5802 133.901 57.3797 134.664 57.3797 135.664V135.938C57.3797 136.911 57.5802 137.661 57.9813 138.188C58.3823 138.714 58.9552 138.977 59.7 138.977ZM70.0531 139.164C69.4906 139.826 68.6651 140.156 67.5766 140.156C66.6755 140.156 65.988 139.896 65.5141 139.375C65.0453 138.849 64.8083 138.073 64.8031 137.047V131.547H66.2484V137.008C66.2484 138.289 66.7693 138.93 67.8109 138.93C68.9151 138.93 69.6495 138.518 70.0141 137.695V131.547H71.4594V140H70.0844L70.0531 139.164ZM77.3203 140.156C76.1745 140.156 75.2422 139.781 74.5234 139.031C73.8047 138.276 73.4453 137.268 73.4453 136.008V135.742C73.4453 134.904 73.6042 134.156 73.9219 133.5C74.2448 132.839 74.6927 132.323 75.2656 131.953C75.8438 131.578 76.4688 131.391 77.1406 131.391C78.2396 131.391 79.0938 131.753 79.7031 132.477C80.3125 133.201 80.6172 134.237 80.6172 135.586V136.188H74.8906C74.9115 137.021 75.1536 137.695 75.6172 138.211C76.0859 138.721 76.6797 138.977 77.3984 138.977C77.9089 138.977 78.3411 138.872 78.6953 138.664C79.0495 138.456 79.3594 138.18 79.625 137.836L80.5078 138.523C79.7995 139.612 78.737 140.156 77.3203 140.156ZM77.1406 132.578C76.5573 132.578 76.0677 132.792 75.6719 133.219C75.276 133.641 75.0312 134.234 74.9375 135H79.1719V134.891C79.1302 134.156 78.9323 133.589 78.5781 133.188C78.224 132.781 77.7448 132.578 77.1406 132.578ZM86.5328 132.844C86.3141 132.807 86.0771 132.789 85.8219 132.789C84.874 132.789 84.2307 133.193 83.8922 134V140H82.4469V131.547H83.8531L83.8766 132.523C84.3505 131.768 85.0224 131.391 85.8922 131.391C86.1734 131.391 86.387 131.427 86.5328 131.5V132.844ZM87.5109 135.703C87.5109 134.406 87.8182 133.365 88.4328 132.578C89.0474 131.786 89.8521 131.391 90.8469 131.391C91.8365 131.391 92.6203 131.729 93.1984 132.406V128H94.6438V140H93.3156L93.2453 139.094C92.6672 139.802 91.8625 140.156 90.8313 140.156C89.8521 140.156 89.0526 139.755 88.4328 138.953C87.8182 138.151 87.5109 137.104 87.5109 135.812V135.703ZM88.9563 135.867C88.9563 136.826 89.1542 137.576 89.55 138.117C89.9458 138.659 90.4927 138.93 91.1906 138.93C92.1073 138.93 92.7766 138.518 93.1984 137.695V133.812C92.7661 133.016 92.1021 132.617 91.2063 132.617C90.4979 132.617 89.9458 132.891 89.55 133.438C89.1542 133.984 88.9563 134.794 88.9563 135.867ZM102.262 140C102.179 139.833 102.111 139.536 102.059 139.109C101.387 139.807 100.585 140.156 99.6531 140.156C98.8198 140.156 98.1349 139.922 97.5984 139.453C97.0672 138.979 96.8016 138.38 96.8016 137.656C96.8016 136.776 97.1349 136.094 97.8016 135.609C98.4734 135.12 99.4161 134.875 100.63 134.875H102.036V134.211C102.036 133.706 101.885 133.305 101.583 133.008C101.281 132.706 100.835 132.555 100.247 132.555C99.7312 132.555 99.299 132.685 98.95 132.945C98.601 133.206 98.4266 133.521 98.4266 133.891H96.9734C96.9734 133.469 97.1219 133.062 97.4187 132.672C97.7208 132.276 98.1271 131.964 98.6375 131.734C99.1531 131.505 99.7182 131.391 100.333 131.391C101.307 131.391 102.07 131.635 102.622 132.125C103.174 132.609 103.46 133.279 103.481 134.133V138.023C103.481 138.799 103.58 139.417 103.778 139.875V140H102.262ZM99.8641 138.898C100.317 138.898 100.747 138.781 101.153 138.547C101.559 138.312 101.854 138.008 102.036 137.633V135.898H100.903C99.1323 135.898 98.2469 136.417 98.2469 137.453C98.2469 137.906 98.3979 138.26 98.7 138.516C99.0021 138.771 99.3901 138.898 99.8641 138.898ZM109.664 135.703C109.664 134.375 109.969 133.326 110.578 132.555C111.188 131.779 112.005 131.391 113.031 131.391C114.031 131.391 114.82 131.727 115.398 132.398L115.461 131.547H116.789V143.25H115.344V139.219C114.76 139.844 113.984 140.156 113.016 140.156C111.995 140.156 111.18 139.76 110.57 138.969C109.966 138.172 109.664 137.117 109.664 135.805V135.703ZM111.109 135.867C111.109 136.836 111.312 137.596 111.719 138.148C112.13 138.701 112.682 138.977 113.375 138.977C114.234 138.977 114.891 138.596 115.344 137.836V133.695C114.885 132.951 114.234 132.578 113.391 132.578C112.693 132.578 112.138 132.857 111.727 133.414C111.315 133.966 111.109 134.784 111.109 135.867ZM124.478 139.164C123.916 139.826 123.09 140.156 122.002 140.156C121.101 140.156 120.413 139.896 119.939 139.375C119.47 138.849 119.233 138.073 119.228 137.047V131.547H120.673V137.008C120.673 138.289 121.194 138.93 122.236 138.93C123.34 138.93 124.074 138.518 124.439 137.695V131.547H125.884V140H124.509L124.478 139.164ZM131.745 140.156C130.599 140.156 129.667 139.781 128.948 139.031C128.23 138.276 127.87 137.268 127.87 136.008V135.742C127.87 134.904 128.029 134.156 128.347 133.5C128.67 132.839 129.118 132.323 129.691 131.953C130.269 131.578 130.894 131.391 131.566 131.391C132.665 131.391 133.519 131.753 134.128 132.477C134.738 133.201 135.042 134.237 135.042 135.586V136.188H129.316C129.336 137.021 129.579 137.695 130.042 138.211C130.511 138.721 131.105 138.977 131.823 138.977C132.334 138.977 132.766 138.872 133.12 138.664C133.474 138.456 133.784 138.18 134.05 137.836L134.933 138.523C134.224 139.612 133.162 140.156 131.745 140.156ZM131.566 132.578C130.982 132.578 130.493 132.792 130.097 133.219C129.701 133.641 129.456 134.234 129.363 135H133.597V134.891C133.555 134.156 133.357 133.589 133.003 133.188C132.649 132.781 132.17 132.578 131.566 132.578ZM148.131 135.867C148.131 137.154 147.837 138.19 147.248 138.977C146.66 139.763 145.863 140.156 144.858 140.156C143.832 140.156 143.024 139.831 142.436 139.18V143.25H140.991V131.547H142.311L142.381 132.484C142.97 131.755 143.787 131.391 144.834 131.391C145.85 131.391 146.652 131.773 147.241 132.539C147.834 133.305 148.131 134.37 148.131 135.734V135.867ZM146.686 135.703C146.686 134.75 146.483 133.997 146.077 133.445C145.67 132.893 145.113 132.617 144.405 132.617C143.53 132.617 142.873 133.005 142.436 133.781V137.82C142.868 138.591 143.53 138.977 144.42 138.977C145.113 138.977 145.662 138.703 146.069 138.156C146.48 137.604 146.686 136.786 146.686 135.703ZM155.344 139.164C154.781 139.826 153.956 140.156 152.867 140.156C151.966 140.156 151.279 139.896 150.805 139.375C150.336 138.849 150.099 138.073 150.094 137.047V131.547H151.539V137.008C151.539 138.289 152.06 138.93 153.102 138.93C154.206 138.93 154.94 138.518 155.305 137.695V131.547H156.75V140H155.375L155.344 139.164ZM162.611 140.156C161.465 140.156 160.533 139.781 159.814 139.031C159.095 138.276 158.736 137.268 158.736 136.008V135.742C158.736 134.904 158.895 134.156 159.212 133.5C159.535 132.839 159.983 132.323 160.556 131.953C161.134 131.578 161.759 131.391 162.431 131.391C163.53 131.391 164.384 131.753 164.994 132.477C165.603 133.201 165.908 134.237 165.908 135.586V136.188H160.181C160.202 137.021 160.444 137.695 160.908 138.211C161.377 138.721 161.97 138.977 162.689 138.977C163.199 138.977 163.632 138.872 163.986 138.664C164.34 138.456 164.65 138.18 164.916 137.836L165.798 138.523C165.09 139.612 164.028 140.156 162.611 140.156ZM162.431 132.578C161.848 132.578 161.358 132.792 160.962 133.219C160.567 133.641 160.322 134.234 160.228 135H164.462V134.891C164.421 134.156 164.223 133.589 163.869 133.188C163.515 132.781 163.035 132.578 162.431 132.578ZM167.386 135.703C167.386 134.406 167.693 133.365 168.308 132.578C168.922 131.786 169.727 131.391 170.722 131.391C171.711 131.391 172.495 131.729 173.073 132.406V128H174.519V140H173.191L173.12 139.094C172.542 139.802 171.737 140.156 170.706 140.156C169.727 140.156 168.928 139.755 168.308 138.953C167.693 138.151 167.386 137.104 167.386 135.812V135.703ZM168.831 135.867C168.831 136.826 169.029 137.576 169.425 138.117C169.821 138.659 170.368 138.93 171.066 138.93C171.982 138.93 172.652 138.518 173.073 137.695V133.812C172.641 133.016 171.977 132.617 171.081 132.617C170.373 132.617 169.821 132.891 169.425 133.438C169.029 133.984 168.831 134.794 168.831 135.867ZM180.427 140.156C179.281 140.156 178.348 139.781 177.63 139.031C176.911 138.276 176.552 137.268 176.552 136.008V135.742C176.552 134.904 176.71 134.156 177.028 133.5C177.351 132.839 177.799 132.323 178.372 131.953C178.95 131.578 179.575 131.391 180.247 131.391C181.346 131.391 182.2 131.753 182.809 132.477C183.419 133.201 183.723 134.237 183.723 135.586V136.188H177.997C178.018 137.021 178.26 137.695 178.723 138.211C179.192 138.721 179.786 138.977 180.505 138.977C181.015 138.977 181.447 138.872 181.802 138.664C182.156 138.456 182.466 138.18 182.731 137.836L183.614 138.523C182.906 139.612 181.843 140.156 180.427 140.156ZM180.247 132.578C179.664 132.578 179.174 132.792 178.778 133.219C178.382 133.641 178.138 134.234 178.044 135H182.278V134.891C182.236 134.156 182.039 133.589 181.684 133.188C181.33 132.781 180.851 132.578 180.247 132.578ZM190.475 137.758C190.475 137.367 190.327 137.065 190.03 136.852C189.738 136.633 189.225 136.445 188.491 136.289C187.761 136.133 187.181 135.945 186.748 135.727C186.321 135.508 186.004 135.247 185.795 134.945C185.592 134.643 185.491 134.284 185.491 133.867C185.491 133.174 185.782 132.589 186.366 132.109C186.954 131.63 187.704 131.391 188.616 131.391C189.574 131.391 190.35 131.638 190.944 132.133C191.543 132.628 191.842 133.26 191.842 134.031H190.389C190.389 133.635 190.22 133.294 189.881 133.008C189.548 132.721 189.126 132.578 188.616 132.578C188.09 132.578 187.678 132.693 187.381 132.922C187.084 133.151 186.936 133.451 186.936 133.82C186.936 134.169 187.074 134.432 187.35 134.609C187.626 134.786 188.123 134.956 188.842 135.117C189.566 135.279 190.152 135.471 190.6 135.695C191.048 135.919 191.379 136.19 191.592 136.508C191.811 136.82 191.92 137.203 191.92 137.656C191.92 138.411 191.618 139.018 191.014 139.477C190.41 139.93 189.626 140.156 188.663 140.156C187.985 140.156 187.386 140.036 186.866 139.797C186.345 139.557 185.936 139.224 185.639 138.797C185.347 138.365 185.202 137.898 185.202 137.398H186.647C186.673 137.883 186.866 138.268 187.225 138.555C187.59 138.836 188.069 138.977 188.663 138.977C189.209 138.977 189.647 138.867 189.975 138.648C190.308 138.424 190.475 138.128 190.475 137.758ZM201.58 140.156C200.434 140.156 199.502 139.781 198.783 139.031C198.064 138.276 197.705 137.268 197.705 136.008V135.742C197.705 134.904 197.864 134.156 198.181 133.5C198.504 132.839 198.952 132.323 199.525 131.953C200.103 131.578 200.728 131.391 201.4 131.391C202.499 131.391 203.353 131.753 203.962 132.477C204.572 133.201 204.877 134.237 204.877 135.586V136.188H199.15C199.171 137.021 199.413 137.695 199.877 138.211C200.345 138.721 200.939 138.977 201.658 138.977C202.168 138.977 202.601 138.872 202.955 138.664C203.309 138.456 203.619 138.18 203.884 137.836L204.767 138.523C204.059 139.612 202.996 140.156 201.58 140.156ZM201.4 132.578C200.817 132.578 200.327 132.792 199.931 133.219C199.535 133.641 199.291 134.234 199.197 135H203.431V134.891C203.39 134.156 203.192 133.589 202.837 133.188C202.483 132.781 202.004 132.578 201.4 132.578ZM211.628 137.758C211.628 137.367 211.48 137.065 211.183 136.852C210.891 136.633 210.378 136.445 209.644 136.289C208.915 136.133 208.334 135.945 207.902 135.727C207.474 135.508 207.157 135.247 206.948 134.945C206.745 134.643 206.644 134.284 206.644 133.867C206.644 133.174 206.935 132.589 207.519 132.109C208.107 131.63 208.857 131.391 209.769 131.391C210.727 131.391 211.503 131.638 212.097 132.133C212.696 132.628 212.995 133.26 212.995 134.031H211.542C211.542 133.635 211.373 133.294 211.034 133.008C210.701 132.721 210.279 132.578 209.769 132.578C209.243 132.578 208.831 132.693 208.534 132.922C208.237 133.151 208.089 133.451 208.089 133.82C208.089 134.169 208.227 134.432 208.503 134.609C208.779 134.786 209.277 134.956 209.995 135.117C210.719 135.279 211.305 135.471 211.753 135.695C212.201 135.919 212.532 136.19 212.745 136.508C212.964 136.82 213.073 137.203 213.073 137.656C213.073 138.411 212.771 139.018 212.167 139.477C211.563 139.93 210.779 140.156 209.816 140.156C209.139 140.156 208.54 140.036 208.019 139.797C207.498 139.557 207.089 139.224 206.792 138.797C206.501 138.365 206.355 137.898 206.355 137.398H207.8C207.826 137.883 208.019 138.268 208.378 138.555C208.743 138.836 209.222 138.977 209.816 138.977C210.362 138.977 210.8 138.867 211.128 138.648C211.461 138.424 211.628 138.128 211.628 137.758ZM218.497 138.977C219.013 138.977 219.463 138.82 219.848 138.508C220.234 138.195 220.447 137.805 220.489 137.336H221.856C221.83 137.82 221.664 138.281 221.356 138.719C221.049 139.156 220.638 139.505 220.122 139.766C219.611 140.026 219.07 140.156 218.497 140.156C217.346 140.156 216.429 139.773 215.747 139.008C215.07 138.237 214.731 137.185 214.731 135.852V135.609C214.731 134.786 214.882 134.055 215.184 133.414C215.486 132.773 215.919 132.276 216.481 131.922C217.049 131.568 217.718 131.391 218.489 131.391C219.437 131.391 220.223 131.674 220.848 132.242C221.479 132.81 221.815 133.547 221.856 134.453H220.489C220.447 133.906 220.239 133.458 219.864 133.109C219.494 132.755 219.036 132.578 218.489 132.578C217.755 132.578 217.184 132.844 216.778 133.375C216.377 133.901 216.177 134.664 216.177 135.664V135.938C216.177 136.911 216.377 137.661 216.778 138.188C217.179 138.714 217.752 138.977 218.497 138.977ZM228.85 140C228.767 139.833 228.699 139.536 228.647 139.109C227.975 139.807 227.173 140.156 226.241 140.156C225.407 140.156 224.722 139.922 224.186 139.453C223.655 138.979 223.389 138.38 223.389 137.656C223.389 136.776 223.722 136.094 224.389 135.609C225.061 135.12 226.004 134.875 227.217 134.875H228.623V134.211C228.623 133.706 228.472 133.305 228.17 133.008C227.868 132.706 227.423 132.555 226.834 132.555C226.319 132.555 225.886 132.685 225.538 132.945C225.189 133.206 225.014 133.521 225.014 133.891H223.561C223.561 133.469 223.709 133.062 224.006 132.672C224.308 132.276 224.715 131.964 225.225 131.734C225.741 131.505 226.306 131.391 226.92 131.391C227.894 131.391 228.657 131.635 229.209 132.125C229.761 132.609 230.048 133.279 230.069 134.133V138.023C230.069 138.799 230.168 139.417 230.366 139.875V140H228.85ZM226.452 138.898C226.905 138.898 227.334 138.781 227.741 138.547C228.147 138.312 228.441 138.008 228.623 137.633V135.898H227.491C225.72 135.898 224.834 136.417 224.834 137.453C224.834 137.906 224.985 138.26 225.288 138.516C225.59 138.771 225.978 138.898 226.452 138.898ZM233.852 131.547L233.898 132.609C234.544 131.797 235.388 131.391 236.43 131.391C238.216 131.391 239.117 132.398 239.133 134.414V140H237.688V134.406C237.682 133.797 237.542 133.346 237.266 133.055C236.995 132.763 236.57 132.617 235.992 132.617C235.523 132.617 235.112 132.742 234.758 132.992C234.404 133.242 234.128 133.57 233.93 133.977V140H232.484V131.547H233.852ZM244.97 140.156C243.824 140.156 242.892 139.781 242.173 139.031C241.455 138.276 241.095 137.268 241.095 136.008V135.742C241.095 134.904 241.254 134.156 241.572 133.5C241.895 132.839 242.343 132.323 242.916 131.953C243.494 131.578 244.119 131.391 244.791 131.391C245.89 131.391 246.744 131.753 247.353 132.477C247.962 133.201 248.267 134.237 248.267 135.586V136.188H242.541C242.561 137.021 242.804 137.695 243.267 138.211C243.736 138.721 244.33 138.977 245.048 138.977C245.559 138.977 245.991 138.872 246.345 138.664C246.699 138.456 247.009 138.18 247.275 137.836L248.158 138.523C247.449 139.612 246.387 140.156 244.97 140.156ZM244.791 132.578C244.207 132.578 243.718 132.792 243.322 133.219C242.926 133.641 242.681 134.234 242.587 135H246.822V134.891C246.78 134.156 246.582 133.589 246.228 133.188C245.874 132.781 245.395 132.578 244.791 132.578ZM255.316 140C255.232 139.833 255.165 139.536 255.112 139.109C254.441 139.807 253.639 140.156 252.706 140.156C251.873 140.156 251.188 139.922 250.652 139.453C250.12 138.979 249.855 138.38 249.855 137.656C249.855 136.776 250.188 136.094 250.855 135.609C251.527 135.12 252.469 134.875 253.683 134.875H255.089V134.211C255.089 133.706 254.938 133.305 254.636 133.008C254.334 132.706 253.889 132.555 253.3 132.555C252.784 132.555 252.352 132.685 252.003 132.945C251.654 133.206 251.48 133.521 251.48 133.891H250.027C250.027 133.469 250.175 133.062 250.472 132.672C250.774 132.276 251.18 131.964 251.691 131.734C252.206 131.505 252.771 131.391 253.386 131.391C254.36 131.391 255.123 131.635 255.675 132.125C256.227 132.609 256.514 133.279 256.534 134.133V138.023C256.534 138.799 256.633 139.417 256.831 139.875V140H255.316ZM252.917 138.898C253.37 138.898 253.8 138.781 254.206 138.547C254.612 138.312 254.907 138.008 255.089 137.633V135.898H253.956C252.185 135.898 251.3 136.417 251.3 137.453C251.3 137.906 251.451 138.26 251.753 138.516C252.055 138.771 252.443 138.898 252.917 138.898ZM263.036 132.844C262.817 132.807 262.58 132.789 262.325 132.789C261.377 132.789 260.734 133.193 260.395 134V140H258.95V131.547H260.356L260.38 132.523C260.854 131.768 261.526 131.391 262.395 131.391C262.677 131.391 262.89 131.427 263.036 131.5V132.844ZM91.8609 150.547L91.9 151.484C92.5198 150.755 93.3557 150.391 94.4078 150.391C95.5901 150.391 96.3948 150.844 96.8219 151.75C97.1031 151.344 97.4677 151.016 97.9156 150.766C98.3688 150.516 98.9026 150.391 99.5172 150.391C101.371 150.391 102.314 151.372 102.345 153.336V159H100.9V153.422C100.9 152.818 100.762 152.367 100.486 152.07C100.21 151.768 99.7464 151.617 99.0953 151.617C98.5589 151.617 98.1135 151.779 97.7594 152.102C97.4052 152.419 97.1995 152.849 97.1422 153.391V159H95.6891V153.461C95.6891 152.232 95.0875 151.617 93.8844 151.617C92.9365 151.617 92.288 152.021 91.9391 152.828V159H90.4938V150.547H91.8609ZM109.902 159C109.818 158.833 109.751 158.536 109.698 158.109C109.027 158.807 108.224 159.156 107.292 159.156C106.459 159.156 105.774 158.922 105.238 158.453C104.706 157.979 104.441 157.38 104.441 156.656C104.441 155.776 104.774 155.094 105.441 154.609C106.113 154.12 107.055 153.875 108.269 153.875H109.675V153.211C109.675 152.706 109.524 152.305 109.222 152.008C108.92 151.706 108.474 151.555 107.886 151.555C107.37 151.555 106.938 151.685 106.589 151.945C106.24 152.206 106.066 152.521 106.066 152.891H104.613C104.613 152.469 104.761 152.062 105.058 151.672C105.36 151.276 105.766 150.964 106.277 150.734C106.792 150.505 107.357 150.391 107.972 150.391C108.946 150.391 109.709 150.635 110.261 151.125C110.813 151.609 111.099 152.279 111.12 153.133V157.023C111.12 157.799 111.219 158.417 111.417 158.875V159H109.902ZM107.503 157.898C107.956 157.898 108.386 157.781 108.792 157.547C109.198 157.312 109.493 157.008 109.675 156.633V154.898H108.542C106.771 154.898 105.886 155.417 105.886 156.453C105.886 156.906 106.037 157.26 106.339 157.516C106.641 157.771 107.029 157.898 107.503 157.898ZM108.839 147H110.589L108.495 149.297H107.331L108.839 147ZM116.372 153.633L118.247 150.547H119.934L117.169 154.727L120.02 159H118.348L116.395 155.836L114.442 159H112.762L115.614 154.727L112.848 150.547H114.52L116.372 153.633ZM123.194 159H121.748V150.547H123.194V159ZM121.631 148.305C121.631 148.07 121.702 147.872 121.842 147.711C121.988 147.549 122.202 147.469 122.483 147.469C122.764 147.469 122.978 147.549 123.123 147.711C123.269 147.872 123.342 148.07 123.342 148.305C123.342 148.539 123.269 148.734 123.123 148.891C122.978 149.047 122.764 149.125 122.483 149.125C122.202 149.125 121.988 149.047 121.842 148.891C121.702 148.734 121.631 148.539 121.631 148.305ZM127.023 150.547L127.062 151.484C127.682 150.755 128.518 150.391 129.57 150.391C130.753 150.391 131.557 150.844 131.984 151.75C132.266 151.344 132.63 151.016 133.078 150.766C133.531 150.516 134.065 150.391 134.68 150.391C136.534 150.391 137.477 151.372 137.508 153.336V159H136.062V153.422C136.062 152.818 135.924 152.367 135.648 152.07C135.372 151.768 134.909 151.617 134.258 151.617C133.721 151.617 133.276 151.779 132.922 152.102C132.568 152.419 132.362 152.849 132.305 153.391V159H130.852V153.461C130.852 152.232 130.25 151.617 129.047 151.617C128.099 151.617 127.451 152.021 127.102 152.828V159H125.656V150.547H127.023ZM139.463 154.695C139.463 153.867 139.624 153.122 139.947 152.461C140.275 151.799 140.728 151.289 141.306 150.93C141.89 150.57 142.554 150.391 143.298 150.391C144.449 150.391 145.379 150.789 146.088 151.586C146.801 152.383 147.158 153.443 147.158 154.766V154.867C147.158 155.69 146.999 156.43 146.681 157.086C146.369 157.737 145.918 158.245 145.33 158.609C144.746 158.974 144.074 159.156 143.314 159.156C142.168 159.156 141.239 158.758 140.525 157.961C139.817 157.164 139.463 156.109 139.463 154.797V154.695ZM140.916 154.867C140.916 155.805 141.132 156.557 141.564 157.125C142.002 157.693 142.585 157.977 143.314 157.977C144.048 157.977 144.632 157.69 145.064 157.117C145.496 156.539 145.713 155.732 145.713 154.695C145.713 153.768 145.491 153.018 145.048 152.445C144.611 151.867 144.028 151.578 143.298 151.578C142.585 151.578 142.009 151.862 141.572 152.43C141.134 152.997 140.916 153.81 140.916 154.867ZM160.716 159H152.919V157.453L156.598 153.531C157.104 152.979 157.476 152.497 157.716 152.086C157.96 151.674 158.083 151.284 158.083 150.914C158.083 150.409 157.955 150.013 157.7 149.727C157.445 149.435 157.08 149.289 156.606 149.289C156.096 149.289 155.692 149.466 155.395 149.82C155.104 150.169 154.958 150.63 154.958 151.203H152.692C152.692 150.51 152.856 149.878 153.184 149.305C153.518 148.732 153.986 148.284 154.591 147.961C155.195 147.633 155.88 147.469 156.645 147.469C157.817 147.469 158.726 147.75 159.372 148.312C160.023 148.875 160.348 149.669 160.348 150.695C160.348 151.258 160.203 151.831 159.911 152.414C159.619 152.997 159.119 153.677 158.411 154.453L155.825 157.18H160.716V159ZM169.913 154.297C169.913 155.87 169.587 157.073 168.936 157.906C168.285 158.74 167.332 159.156 166.077 159.156C164.837 159.156 163.889 158.747 163.233 157.93C162.577 157.112 162.241 155.94 162.225 154.414V152.32C162.225 150.732 162.553 149.526 163.209 148.703C163.871 147.88 164.821 147.469 166.061 147.469C167.301 147.469 168.248 147.878 168.905 148.695C169.561 149.508 169.897 150.677 169.913 152.203V154.297ZM167.655 152C167.655 151.057 167.524 150.372 167.264 149.945C167.009 149.513 166.608 149.297 166.061 149.297C165.53 149.297 165.136 149.503 164.881 149.914C164.631 150.32 164.498 150.958 164.483 151.828V154.594C164.483 155.521 164.608 156.211 164.858 156.664C165.113 157.112 165.519 157.336 166.077 157.336C166.629 157.336 167.027 157.12 167.272 156.688C167.517 156.255 167.644 155.594 167.655 154.703V152ZM181.869 156.016C181.869 155.573 181.712 155.234 181.4 155C181.087 154.76 180.525 154.51 179.712 154.25C178.9 153.984 178.257 153.724 177.783 153.469C176.491 152.771 175.845 151.831 175.845 150.648C175.845 150.034 176.017 149.487 176.361 149.008C176.71 148.523 177.207 148.146 177.853 147.875C178.504 147.604 179.233 147.469 180.041 147.469C180.853 147.469 181.577 147.617 182.212 147.914C182.848 148.206 183.34 148.62 183.689 149.156C184.043 149.693 184.22 150.302 184.22 150.984H181.877C181.877 150.464 181.712 150.06 181.384 149.773C181.056 149.482 180.595 149.336 180.002 149.336C179.429 149.336 178.983 149.458 178.666 149.703C178.348 149.943 178.189 150.26 178.189 150.656C178.189 151.026 178.374 151.336 178.744 151.586C179.119 151.836 179.668 152.07 180.392 152.289C181.726 152.69 182.697 153.188 183.306 153.781C183.916 154.375 184.22 155.115 184.22 156C184.22 156.984 183.848 157.758 183.103 158.32C182.358 158.878 181.356 159.156 180.095 159.156C179.22 159.156 178.423 158.997 177.705 158.68C176.986 158.357 176.436 157.917 176.056 157.359C175.681 156.802 175.494 156.156 175.494 155.422H177.845C177.845 156.677 178.595 157.305 180.095 157.305C180.653 157.305 181.087 157.193 181.4 156.969C181.712 156.74 181.869 156.422 181.869 156.016ZM189.527 154.438L188.308 155.75V159H185.964V147.625H188.308V152.781L189.339 151.367L192.238 147.625H195.12L191.081 152.68L195.238 159H192.448L189.527 154.438ZM204.88 147.625V155.117C204.88 156.362 204.489 157.346 203.708 158.07C202.932 158.794 201.869 159.156 200.52 159.156C199.192 159.156 198.138 158.805 197.356 158.102C196.575 157.398 196.177 156.432 196.161 155.203V147.625H198.505V155.133C198.505 155.878 198.682 156.422 199.036 156.766C199.395 157.104 199.89 157.273 200.52 157.273C201.838 157.273 202.507 156.581 202.528 155.195V147.625H204.88ZM206.92 157.891C206.92 157.531 207.04 157.24 207.28 157.016C207.524 156.792 207.829 156.68 208.194 156.68C208.564 156.68 208.868 156.792 209.108 157.016C209.353 157.24 209.475 157.531 209.475 157.891C209.475 158.245 209.355 158.534 209.116 158.758C208.876 158.977 208.569 159.086 208.194 159.086C207.824 159.086 207.519 158.977 207.28 158.758C207.04 158.534 206.92 158.245 206.92 157.891Z" fill="black"/>
<path d="M176.94 29.6002C179.071 28.1252 181.877 30.3859 183.115 32.604C184.326 34.7724 184.695 38.0844 182.457 39.1549C175.757 42.3596 165.02 47.2978 163.244 48.1243C162.567 48.4391 160.818 47.5343 160.54 47.2301C159.632 46.2361 159.224 45.5888 159.023 44.2577C158.806 42.825 159.25 42.2023 159.623 41.8541C160.916 40.6486 171.163 33.5994 176.94 29.6002Z" fill="#FFBF00"/>
<path d="M142.779 17.6037C142.566 15.0187 145.923 13.7199 148.461 13.7575C150.943 13.7943 153.994 15.1334 153.803 17.6088C153.232 25.0192 152.147 36.7954 151.975 38.7485C151.91 39.4924 150.254 40.5549 149.852 40.6433C148.538 40.9323 147.774 40.9618 146.521 40.4694C145.173 39.9394 144.856 39.2431 144.741 38.7452C144.343 37.0217 143.356 24.6127 142.779 17.6037Z" fill="#FFBF00"/>
<path d="M114.101 39.2032C111.757 38.0931 112.309 34.5337 113.608 32.3533C114.879 30.2216 117.561 28.2487 119.608 29.6536C125.738 33.8593 135.389 40.6973 136.994 41.8239C137.605 42.253 137.698 44.2203 137.574 44.6128C137.168 45.8959 136.812 46.5727 135.761 47.4114C134.629 48.3141 133.868 48.2405 133.38 48.0908C131.689 47.5728 120.456 42.213 114.101 39.2032Z" fill="#FFBF00"/>
<path d="M108.365 306.063C105.157 306.063 102.556 303.462 102.556 300.254C102.556 297.045 105.157 294.444 108.365 294.444C111.574 294.444 114.175 297.045 114.175 300.254C114.175 303.462 111.574 306.063 108.365 306.063Z" fill="#5D5360"/>
<path d="M110.301 286.699V300.255C110.301 301.324 109.435 302.191 108.365 302.191C107.294 302.191 106.428 301.324 106.428 300.255V286.699H110.301Z" fill="#AEA8AF"/>
<path d="M174.207 306.063C170.999 306.063 168.398 303.462 168.398 300.254C168.398 297.045 170.999 294.444 174.207 294.444C177.416 294.444 180.017 297.045 180.017 300.254C180.017 303.462 177.416 306.063 174.207 306.063Z" fill="#5D5360"/>
<path d="M176.143 286.699V300.255C176.143 301.324 175.276 302.191 174.206 302.191C173.136 302.191 172.27 301.324 172.27 300.255V286.699H176.143Z" fill="#AEA8AF"/>
<path d="M102.555 284.763H178.057C178.717 284.763 179.303 284.448 179.668 283.897C180.033 283.347 180.097 282.683 179.84 282.075L171.741 262.84C172.959 262.406 174.185 261.998 175.395 261.535L183.411 280.573C184.167 282.37 183.974 284.415 182.894 286.04C181.816 287.666 180.006 288.636 178.057 288.636H102.555C101.485 288.636 100.619 287.769 100.619 286.699C100.619 285.63 101.485 284.763 102.555 284.763Z" fill="#C0BCC1"/>
<path d="M92.9424 228.603L92.8026 224.731L107.073 224.212L106.124 212.419L109.985 212.109L110.948 224.07L126.23 223.514L125.89 210.743L129.763 210.639L130.102 223.373L145.846 222.799L146.76 207.97L150.626 208.208L149.735 222.658L166.433 222.05L169.429 205.968L173.238 206.677L170.401 221.905L187.69 221.275L187.83 225.147L169.674 225.808L166.69 241.82L181.996 242.16L181.909 246.031L165.972 245.677L162.835 262.516L159.026 261.807L162.047 245.59L148.34 245.286L147.377 260.918L143.511 260.679L144.465 245.2L130.675 244.893L131.054 259.112L127.181 259.216L126.797 244.807L112.591 244.491L113.654 257.702L109.792 258.012L108.697 244.405L95.1737 244.105L95.2607 240.234L108.385 240.525L107.383 228.077L92.9424 228.603ZM162.766 241.733L165.706 225.952L149.495 226.543L148.578 241.418L162.766 241.733ZM144.704 241.332L145.607 226.684L130.205 227.245L130.572 241.018L144.704 241.332ZM112.279 240.611L126.694 240.931L126.333 227.386L111.259 227.936L112.279 240.611Z" fill="#C0BCC1"/>
<path d="M170.541 264.966C174.8 264.966 178.541 262.218 179.789 258.081L196.153 204.102C196.34 203.485 196.208 202.816 195.799 202.316C195.393 201.816 194.753 201.556 194.122 201.612L90.7583 211.183C90.2345 211.231 89.7522 211.492 89.4232 211.902C89.0941 212.313 88.9485 212.84 89.0167 213.362L94.2136 253.205C94.6863 256.834 97.6801 259.661 101.328 259.929L169.813 264.94C170.057 264.957 170.301 264.966 170.541 264.966ZM191.611 205.734L176.082 256.96C175.29 259.586 172.792 261.289 170.097 261.076L101.612 256.065C99.7868 255.932 98.2908 254.519 98.0525 252.703L93.1168 214.854L191.611 205.734Z" fill="#C9C6CA"/>
<path d="M199.215 205.199L209.866 194.548C211.378 193.036 211.378 190.584 209.866 189.071C208.353 187.558 205.901 187.558 204.388 189.071L193.737 199.722C192.225 201.235 192.225 203.687 193.737 205.199C195.25 206.712 197.702 206.712 199.215 205.199Z" fill="#E6646E"/>
<path d="M204.388 189.071C204.487 188.972 204.6 188.897 204.706 188.811C204.813 188.897 204.925 188.972 205.024 189.071C206.536 190.584 206.536 193.036 205.024 194.548L194.373 205.199C194.274 205.298 194.162 205.373 194.055 205.459C193.949 205.373 193.836 205.298 193.737 205.199C192.225 203.687 192.225 201.235 193.737 199.722L204.388 189.071Z" fill="#FF8087"/>
<g filter="url(#filter0_d)">
<path d="M10 392C10 387.582 13.5817 384 18 384H283C287.418 384 291 387.582 291 392V419C291 423.418 287.418 427 283 427H18C13.5817 427 10 423.418 10 419V392Z" fill="white"/>
<path d="M150.5 439L139.675 424H161.325L150.5 439Z" fill="white"/>
</g>
<path d="M37.6875 408.391C37.5469 409.594 37.1016 410.523 36.3516 411.18C35.6068 411.831 34.6146 412.156 33.375 412.156C32.0312 412.156 30.9531 411.674 30.1406 410.711C29.3333 409.747 28.9297 408.458 28.9297 406.844V405.75C28.9297 404.693 29.1172 403.763 29.4922 402.961C29.8724 402.159 30.4089 401.544 31.1016 401.117C31.7943 400.685 32.5964 400.469 33.5078 400.469C34.7161 400.469 35.6849 400.807 36.4141 401.484C37.1432 402.156 37.5677 403.089 37.6875 404.281H36.1797C36.0495 403.375 35.7656 402.719 35.3281 402.312C34.8958 401.906 34.2891 401.703 33.5078 401.703C32.5495 401.703 31.7969 402.057 31.25 402.766C30.7083 403.474 30.4375 404.482 30.4375 405.789V406.891C30.4375 408.125 30.6953 409.107 31.2109 409.836C31.7266 410.565 32.4479 410.93 33.375 410.93C34.2083 410.93 34.8464 410.742 35.2891 410.367C35.737 409.987 36.0339 409.328 36.1797 408.391H37.6875ZM39.6328 407.695C39.6328 406.867 39.7943 406.122 40.1172 405.461C40.4453 404.799 40.8984 404.289 41.4766 403.93C42.0599 403.57 42.724 403.391 43.4688 403.391C44.6198 403.391 45.5495 403.789 46.2578 404.586C46.9714 405.383 47.3281 406.443 47.3281 407.766V407.867C47.3281 408.69 47.1693 409.43 46.8516 410.086C46.5391 410.737 46.0885 411.245 45.5 411.609C44.9167 411.974 44.2448 412.156 43.4844 412.156C42.3385 412.156 41.4089 411.758 40.6953 410.961C39.987 410.164 39.6328 409.109 39.6328 407.797V407.695ZM41.0859 407.867C41.0859 408.805 41.3021 409.557 41.7344 410.125C42.1719 410.693 42.7552 410.977 43.4844 410.977C44.2188 410.977 44.8021 410.69 45.2344 410.117C45.6667 409.539 45.8828 408.732 45.8828 407.695C45.8828 406.768 45.6615 406.018 45.2188 405.445C44.7812 404.867 44.1979 404.578 43.4688 404.578C42.7552 404.578 42.1797 404.862 41.7422 405.43C41.3047 405.997 41.0859 406.81 41.0859 407.867ZM51 403.547L51.0391 404.484C51.6589 403.755 52.4948 403.391 53.5469 403.391C54.7292 403.391 55.5339 403.844 55.9609 404.75C56.2422 404.344 56.6068 404.016 57.0547 403.766C57.5078 403.516 58.0417 403.391 58.6562 403.391C60.5104 403.391 61.4531 404.372 61.4844 406.336V412H60.0391V406.422C60.0391 405.818 59.901 405.367 59.625 405.07C59.349 404.768 58.8854 404.617 58.2344 404.617C57.6979 404.617 57.2526 404.779 56.8984 405.102C56.5443 405.419 56.3385 405.849 56.2812 406.391V412H54.8281V406.461C54.8281 405.232 54.2266 404.617 53.0234 404.617C52.0755 404.617 51.4271 405.021 51.0781 405.828V412H49.6328V403.547H51ZM65.7422 412H64.2969V403.547H65.7422V412ZM64.1797 401.305C64.1797 401.07 64.25 400.872 64.3906 400.711C64.5365 400.549 64.75 400.469 65.0312 400.469C65.3125 400.469 65.526 400.549 65.6719 400.711C65.8177 400.872 65.8906 401.07 65.8906 401.305C65.8906 401.539 65.8177 401.734 65.6719 401.891C65.526 402.047 65.3125 402.125 65.0312 402.125C64.75 402.125 64.5365 402.047 64.3906 401.891C64.25 401.734 64.1797 401.539 64.1797 401.305ZM72.0703 412.156C70.9245 412.156 69.9922 411.781 69.2734 411.031C68.5547 410.276 68.1953 409.268 68.1953 408.008V407.742C68.1953 406.904 68.3542 406.156 68.6719 405.5C68.9948 404.839 69.4427 404.323 70.0156 403.953C70.5938 403.578 71.2188 403.391 71.8906 403.391C72.9896 403.391 73.8438 403.753 74.4531 404.477C75.0625 405.201 75.3672 406.237 75.3672 407.586V408.188H69.6406C69.6615 409.021 69.9036 409.695 70.3672 410.211C70.8359 410.721 71.4297 410.977 72.1484 410.977C72.6589 410.977 73.0911 410.872 73.4453 410.664C73.7995 410.456 74.1094 410.18 74.375 409.836L75.2578 410.523C74.5495 411.612 73.487 412.156 72.0703 412.156ZM71.8906 404.578C71.3073 404.578 70.8177 404.792 70.4219 405.219C70.026 405.641 69.7812 406.234 69.6875 407H73.9219V406.891C73.8802 406.156 73.6823 405.589 73.3281 405.188C72.974 404.781 72.4948 404.578 71.8906 404.578ZM78.9141 403.547L78.9609 404.609C79.6068 403.797 80.4505 403.391 81.4922 403.391C83.2786 403.391 84.1797 404.398 84.1953 406.414V412H82.75V406.406C82.7448 405.797 82.6042 405.346 82.3281 405.055C82.0573 404.763 81.6328 404.617 81.0547 404.617C80.5859 404.617 80.1745 404.742 79.8203 404.992C79.4661 405.242 79.1901 405.57 78.9922 405.977V412H77.5469V403.547H78.9141ZM88.2344 410.82H93.1797V412H86.4688V410.938L91.1328 404.742H86.5391V403.547H92.9453V404.57L88.2344 410.82ZM100.531 412C100.448 411.833 100.38 411.536 100.328 411.109C99.6562 411.807 98.8542 412.156 97.9219 412.156C97.0885 412.156 96.4036 411.922 95.8672 411.453C95.3359 410.979 95.0703 410.38 95.0703 409.656C95.0703 408.776 95.4036 408.094 96.0703 407.609C96.7422 407.12 97.6849 406.875 98.8984 406.875H100.305V406.211C100.305 405.706 100.154 405.305 99.8516 405.008C99.5495 404.706 99.1042 404.555 98.5156 404.555C98 404.555 97.5677 404.685 97.2188 404.945C96.8698 405.206 96.6953 405.521 96.6953 405.891H95.2422C95.2422 405.469 95.3906 405.062 95.6875 404.672C95.9896 404.276 96.3958 403.964 96.9062 403.734C97.4219 403.505 97.987 403.391 98.6016 403.391C99.5755 403.391 100.339 403.635 100.891 404.125C101.443 404.609 101.729 405.279 101.75 406.133V410.023C101.75 410.799 101.849 411.417 102.047 411.875V412H100.531ZM98.1328 410.898C98.5859 410.898 99.0156 410.781 99.4219 410.547C99.8281 410.312 100.122 410.008 100.305 409.633V407.898H99.1719C97.401 407.898 96.5156 408.417 96.5156 409.453C96.5156 409.906 96.6667 410.26 96.9688 410.516C97.2708 410.771 97.6589 410.898 98.1328 410.898ZM114.203 412C114.12 411.833 114.052 411.536 114 411.109C113.328 411.807 112.526 412.156 111.594 412.156C110.76 412.156 110.076 411.922 109.539 411.453C109.008 410.979 108.742 410.38 108.742 409.656C108.742 408.776 109.076 408.094 109.742 407.609C110.414 407.12 111.357 406.875 112.57 406.875H113.977V406.211C113.977 405.706 113.826 405.305 113.523 405.008C113.221 404.706 112.776 404.555 112.188 404.555C111.672 404.555 111.24 404.685 110.891 404.945C110.542 405.206 110.367 405.521 110.367 405.891H108.914C108.914 405.469 109.062 405.062 109.359 404.672C109.661 404.276 110.068 403.964 110.578 403.734C111.094 403.505 111.659 403.391 112.273 403.391C113.247 403.391 114.01 403.635 114.562 404.125C115.115 404.609 115.401 405.279 115.422 406.133V410.023C115.422 410.799 115.521 411.417 115.719 411.875V412H114.203ZM111.805 410.898C112.258 410.898 112.688 410.781 113.094 410.547C113.5 410.312 113.794 410.008 113.977 409.633V407.898H112.844C111.073 407.898 110.188 408.417 110.188 409.453C110.188 409.906 110.339 410.26 110.641 410.516C110.943 410.771 111.331 410.898 111.805 410.898ZM126.164 412.156C125.018 412.156 124.086 411.781 123.367 411.031C122.648 410.276 122.289 409.268 122.289 408.008V407.742C122.289 406.904 122.448 406.156 122.766 405.5C123.089 404.839 123.536 404.323 124.109 403.953C124.688 403.578 125.312 403.391 125.984 403.391C127.083 403.391 127.938 403.753 128.547 404.477C129.156 405.201 129.461 406.237 129.461 407.586V408.188H123.734C123.755 409.021 123.997 409.695 124.461 410.211C124.93 410.721 125.523 410.977 126.242 410.977C126.753 410.977 127.185 410.872 127.539 410.664C127.893 410.456 128.203 410.18 128.469 409.836L129.352 410.523C128.643 411.612 127.581 412.156 126.164 412.156ZM125.984 404.578C125.401 404.578 124.911 404.792 124.516 405.219C124.12 405.641 123.875 406.234 123.781 407H128.016V406.891C127.974 406.156 127.776 405.589 127.422 405.188C127.068 404.781 126.589 404.578 125.984 404.578ZM136.562 409.758C136.562 409.367 136.414 409.065 136.117 408.852C135.826 408.633 135.312 408.445 134.578 408.289C133.849 408.133 133.268 407.945 132.836 407.727C132.409 407.508 132.091 407.247 131.883 406.945C131.68 406.643 131.578 406.284 131.578 405.867C131.578 405.174 131.87 404.589 132.453 404.109C133.042 403.63 133.792 403.391 134.703 403.391C135.661 403.391 136.438 403.638 137.031 404.133C137.63 404.628 137.93 405.26 137.93 406.031H136.477C136.477 405.635 136.307 405.294 135.969 405.008C135.635 404.721 135.214 404.578 134.703 404.578C134.177 404.578 133.766 404.693 133.469 404.922C133.172 405.151 133.023 405.451 133.023 405.82C133.023 406.169 133.161 406.432 133.438 406.609C133.714 406.786 134.211 406.956 134.93 407.117C135.654 407.279 136.24 407.471 136.688 407.695C137.135 407.919 137.466 408.19 137.68 408.508C137.898 408.82 138.008 409.203 138.008 409.656C138.008 410.411 137.706 411.018 137.102 411.477C136.497 411.93 135.714 412.156 134.75 412.156C134.073 412.156 133.474 412.036 132.953 411.797C132.432 411.557 132.023 411.224 131.727 410.797C131.435 410.365 131.289 409.898 131.289 409.398H132.734C132.76 409.883 132.953 410.268 133.312 410.555C133.677 410.836 134.156 410.977 134.75 410.977C135.297 410.977 135.734 410.867 136.062 410.648C136.396 410.424 136.562 410.128 136.562 409.758ZM143.781 410.977C144.297 410.977 144.747 410.82 145.133 410.508C145.518 410.195 145.732 409.805 145.773 409.336H147.141C147.115 409.82 146.948 410.281 146.641 410.719C146.333 411.156 145.922 411.505 145.406 411.766C144.896 412.026 144.354 412.156 143.781 412.156C142.63 412.156 141.714 411.773 141.031 411.008C140.354 410.237 140.016 409.185 140.016 407.852V407.609C140.016 406.786 140.167 406.055 140.469 405.414C140.771 404.773 141.203 404.276 141.766 403.922C142.333 403.568 143.003 403.391 143.773 403.391C144.721 403.391 145.508 403.674 146.133 404.242C146.763 404.81 147.099 405.547 147.141 406.453H145.773C145.732 405.906 145.523 405.458 145.148 405.109C144.779 404.755 144.32 404.578 143.773 404.578C143.039 404.578 142.469 404.844 142.062 405.375C141.661 405.901 141.461 406.664 141.461 407.664V407.938C141.461 408.911 141.661 409.661 142.062 410.188C142.464 410.714 143.036 410.977 143.781 410.977ZM154.484 412C154.401 411.833 154.333 411.536 154.281 411.109C153.609 411.807 152.807 412.156 151.875 412.156C151.042 412.156 150.357 411.922 149.82 411.453C149.289 410.979 149.023 410.38 149.023 409.656C149.023 408.776 149.357 408.094 150.023 407.609C150.695 407.12 151.638 406.875 152.852 406.875H154.258V406.211C154.258 405.706 154.107 405.305 153.805 405.008C153.503 404.706 153.057 404.555 152.469 404.555C151.953 404.555 151.521 404.685 151.172 404.945C150.823 405.206 150.648 405.521 150.648 405.891H149.195C149.195 405.469 149.344 405.062 149.641 404.672C149.943 404.276 150.349 403.964 150.859 403.734C151.375 403.505 151.94 403.391 152.555 403.391C153.529 403.391 154.292 403.635 154.844 404.125C155.396 404.609 155.682 405.279 155.703 406.133V410.023C155.703 410.799 155.802 411.417 156 411.875V412H154.484ZM152.086 410.898C152.539 410.898 152.969 410.781 153.375 410.547C153.781 410.312 154.076 410.008 154.258 409.633V407.898H153.125C151.354 407.898 150.469 408.417 150.469 409.453C150.469 409.906 150.62 410.26 150.922 410.516C151.224 410.771 151.612 410.898 152.086 410.898ZM159.836 403.547L159.883 404.609C160.529 403.797 161.372 403.391 162.414 403.391C164.201 403.391 165.102 404.398 165.117 406.414V412H163.672V406.406C163.667 405.797 163.526 405.346 163.25 405.055C162.979 404.763 162.555 404.617 161.977 404.617C161.508 404.617 161.096 404.742 160.742 404.992C160.388 405.242 160.112 405.57 159.914 405.977V412H158.469V403.547H159.836ZM171.305 412.156C170.159 412.156 169.227 411.781 168.508 411.031C167.789 410.276 167.43 409.268 167.43 408.008V407.742C167.43 406.904 167.589 406.156 167.906 405.5C168.229 404.839 168.677 404.323 169.25 403.953C169.828 403.578 170.453 403.391 171.125 403.391C172.224 403.391 173.078 403.753 173.688 404.477C174.297 405.201 174.602 406.237 174.602 407.586V408.188H168.875C168.896 409.021 169.138 409.695 169.602 410.211C170.07 410.721 170.664 410.977 171.383 410.977C171.893 410.977 172.326 410.872 172.68 410.664C173.034 410.456 173.344 410.18 173.609 409.836L174.492 410.523C173.784 411.612 172.721 412.156 171.305 412.156ZM171.125 404.578C170.542 404.578 170.052 404.792 169.656 405.219C169.26 405.641 169.016 406.234 168.922 407H173.156V406.891C173.115 406.156 172.917 405.589 172.562 405.188C172.208 404.781 171.729 404.578 171.125 404.578ZM182 412C181.917 411.833 181.849 411.536 181.797 411.109C181.125 411.807 180.323 412.156 179.391 412.156C178.557 412.156 177.872 411.922 177.336 411.453C176.805 410.979 176.539 410.38 176.539 409.656C176.539 408.776 176.872 408.094 177.539 407.609C178.211 407.12 179.154 406.875 180.367 406.875H181.773V406.211C181.773 405.706 181.622 405.305 181.32 405.008C181.018 404.706 180.573 404.555 179.984 404.555C179.469 404.555 179.036 404.685 178.688 404.945C178.339 405.206 178.164 405.521 178.164 405.891H176.711C176.711 405.469 176.859 405.062 177.156 404.672C177.458 404.276 177.865 403.964 178.375 403.734C178.891 403.505 179.456 403.391 180.07 403.391C181.044 403.391 181.807 403.635 182.359 404.125C182.911 404.609 183.198 405.279 183.219 406.133V410.023C183.219 410.799 183.318 411.417 183.516 411.875V412H182ZM179.602 410.898C180.055 410.898 180.484 410.781 180.891 410.547C181.297 410.312 181.591 410.008 181.773 409.633V407.898H180.641C178.87 407.898 177.984 408.417 177.984 409.453C177.984 409.906 178.135 410.26 178.438 410.516C178.74 410.771 179.128 410.898 179.602 410.898ZM190.07 404.844C189.852 404.807 189.615 404.789 189.359 404.789C188.411 404.789 187.768 405.193 187.43 406V412H185.984V403.547H187.391L187.414 404.523C187.888 403.768 188.56 403.391 189.43 403.391C189.711 403.391 189.924 403.427 190.07 403.5V404.844ZM203.516 407.867C203.516 409.154 203.221 410.19 202.633 410.977C202.044 411.763 201.247 412.156 200.242 412.156C199.216 412.156 198.409 411.831 197.82 411.18V415.25H196.375V403.547H197.695L197.766 404.484C198.354 403.755 199.172 403.391 200.219 403.391C201.234 403.391 202.036 403.773 202.625 404.539C203.219 405.305 203.516 406.37 203.516 407.734V407.867ZM202.07 407.703C202.07 406.75 201.867 405.997 201.461 405.445C201.055 404.893 200.497 404.617 199.789 404.617C198.914 404.617 198.258 405.005 197.82 405.781V409.82C198.253 410.591 198.914 410.977 199.805 410.977C200.497 410.977 201.047 410.703 201.453 410.156C201.865 409.604 202.07 408.786 202.07 407.703ZM209.945 404.844C209.727 404.807 209.49 404.789 209.234 404.789C208.286 404.789 207.643 405.193 207.305 406V412H205.859V403.547H207.266L207.289 404.523C207.763 403.768 208.435 403.391 209.305 403.391C209.586 403.391 209.799 403.427 209.945 403.5V404.844ZM211.242 407.695C211.242 406.867 211.404 406.122 211.727 405.461C212.055 404.799 212.508 404.289 213.086 403.93C213.669 403.57 214.333 403.391 215.078 403.391C216.229 403.391 217.159 403.789 217.867 404.586C218.581 405.383 218.938 406.443 218.938 407.766V407.867C218.938 408.69 218.779 409.43 218.461 410.086C218.148 410.737 217.698 411.245 217.109 411.609C216.526 411.974 215.854 412.156 215.094 412.156C213.948 412.156 213.018 411.758 212.305 410.961C211.596 410.164 211.242 409.109 211.242 407.797V407.695ZM212.695 407.867C212.695 408.805 212.911 409.557 213.344 410.125C213.781 410.693 214.365 410.977 215.094 410.977C215.828 410.977 216.411 410.69 216.844 410.117C217.276 409.539 217.492 408.732 217.492 407.695C217.492 406.768 217.271 406.018 216.828 405.445C216.391 404.867 215.807 404.578 215.078 404.578C214.365 404.578 213.789 404.862 213.352 405.43C212.914 405.997 212.695 406.81 212.695 407.867ZM220.898 407.703C220.898 406.406 221.206 405.365 221.82 404.578C222.435 403.786 223.24 403.391 224.234 403.391C225.224 403.391 226.008 403.729 226.586 404.406V400H228.031V412H226.703L226.633 411.094C226.055 411.802 225.25 412.156 224.219 412.156C223.24 412.156 222.44 411.755 221.82 410.953C221.206 410.151 220.898 409.104 220.898 407.812V407.703ZM222.344 407.867C222.344 408.826 222.542 409.576 222.938 410.117C223.333 410.659 223.88 410.93 224.578 410.93C225.495 410.93 226.164 410.518 226.586 409.695V405.812C226.154 405.016 225.49 404.617 224.594 404.617C223.885 404.617 223.333 404.891 222.938 405.438C222.542 405.984 222.344 406.794 222.344 407.867ZM236 411.164C235.438 411.826 234.612 412.156 233.523 412.156C232.622 412.156 231.935 411.896 231.461 411.375C230.992 410.849 230.755 410.073 230.75 409.047V403.547H232.195V409.008C232.195 410.289 232.716 410.93 233.758 410.93C234.862 410.93 235.596 410.518 235.961 409.695V403.547H237.406V412H236.031L236 411.164ZM243.5 410.977C244.016 410.977 244.466 410.82 244.852 410.508C245.237 410.195 245.451 409.805 245.492 409.336H246.859C246.833 409.82 246.667 410.281 246.359 410.719C246.052 411.156 245.641 411.505 245.125 411.766C244.615 412.026 244.073 412.156 243.5 412.156C242.349 412.156 241.432 411.773 240.75 411.008C240.073 410.237 239.734 409.185 239.734 407.852V407.609C239.734 406.786 239.885 406.055 240.188 405.414C240.49 404.773 240.922 404.276 241.484 403.922C242.052 403.568 242.721 403.391 243.492 403.391C244.44 403.391 245.227 403.674 245.852 404.242C246.482 404.81 246.818 405.547 246.859 406.453H245.492C245.451 405.906 245.242 405.458 244.867 405.109C244.497 404.755 244.039 404.578 243.492 404.578C242.758 404.578 242.188 404.844 241.781 405.375C241.38 405.901 241.18 406.664 241.18 407.664V407.938C241.18 408.911 241.38 409.661 241.781 410.188C242.182 410.714 242.755 410.977 243.5 410.977ZM250.945 401.5V403.547H252.523V404.664H250.945V409.906C250.945 410.245 251.016 410.5 251.156 410.672C251.297 410.839 251.536 410.922 251.875 410.922C252.042 410.922 252.271 410.891 252.562 410.828V412C252.182 412.104 251.812 412.156 251.453 412.156C250.807 412.156 250.32 411.961 249.992 411.57C249.664 411.18 249.5 410.625 249.5 409.906V404.664H247.961V403.547H249.5V401.5H250.945ZM254.18 407.695C254.18 406.867 254.341 406.122 254.664 405.461C254.992 404.799 255.445 404.289 256.023 403.93C256.607 403.57 257.271 403.391 258.016 403.391C259.167 403.391 260.096 403.789 260.805 404.586C261.518 405.383 261.875 406.443 261.875 407.766V407.867C261.875 408.69 261.716 409.43 261.398 410.086C261.086 410.737 260.635 411.245 260.047 411.609C259.464 411.974 258.792 412.156 258.031 412.156C256.885 412.156 255.956 411.758 255.242 410.961C254.534 410.164 254.18 409.109 254.18 407.797V407.695ZM255.633 407.867C255.633 408.805 255.849 409.557 256.281 410.125C256.719 410.693 257.302 410.977 258.031 410.977C258.766 410.977 259.349 410.69 259.781 410.117C260.214 409.539 260.43 408.732 260.43 407.695C260.43 406.768 260.208 406.018 259.766 405.445C259.328 404.867 258.745 404.578 258.016 404.578C257.302 404.578 256.727 404.862 256.289 405.43C255.852 405.997 255.633 406.81 255.633 407.867ZM269.109 409.758C269.109 409.367 268.961 409.065 268.664 408.852C268.372 408.633 267.859 408.445 267.125 408.289C266.396 408.133 265.815 407.945 265.383 407.727C264.956 407.508 264.638 407.247 264.43 406.945C264.227 406.643 264.125 406.284 264.125 405.867C264.125 405.174 264.417 404.589 265 404.109C265.589 403.63 266.339 403.391 267.25 403.391C268.208 403.391 268.984 403.638 269.578 404.133C270.177 404.628 270.477 405.26 270.477 406.031H269.023C269.023 405.635 268.854 405.294 268.516 405.008C268.182 404.721 267.76 404.578 267.25 404.578C266.724 404.578 266.312 404.693 266.016 404.922C265.719 405.151 265.57 405.451 265.57 405.82C265.57 406.169 265.708 406.432 265.984 406.609C266.26 406.786 266.758 406.956 267.477 407.117C268.201 407.279 268.786 407.471 269.234 407.695C269.682 407.919 270.013 408.19 270.227 408.508C270.445 408.82 270.555 409.203 270.555 409.656C270.555 410.411 270.253 411.018 269.648 411.477C269.044 411.93 268.26 412.156 267.297 412.156C266.62 412.156 266.021 412.036 265.5 411.797C264.979 411.557 264.57 411.224 264.273 410.797C263.982 410.365 263.836 409.898 263.836 409.398H265.281C265.307 409.883 265.5 410.268 265.859 410.555C266.224 410.836 266.703 410.977 267.297 410.977C267.844 410.977 268.281 410.867 268.609 410.648C268.943 410.424 269.109 410.128 269.109 409.758Z" fill="black"/>
<defs>
<filter id="filter0_d" x="0" y="378" width="301" height="75" filterUnits="userSpaceOnUse" color-interpolation-filters="sRGB">
<feFlood flood-opacity="0" result="BackgroundImageFix"/>
<feColorMatrix in="SourceAlpha" type="matrix" values="0 0 0 0 0 0 0 0 0 0 0 0 0 0 0 0 0 0 127 0"/>
<feOffset dy="4"/>
<feGaussianBlur stdDeviation="5"/>
<feColorMatrix type="matrix" values="0 0 0 0 0 0 0 0 0 0 0 0 0 0 0 0 0 0 0.1 0"/>
<feBlend mode="normal" in2="BackgroundImageFix" result="effect1_dropShadow"/>
<feBlend mode="normal" in="SourceGraphic" in2="effect1_dropShadow" result="shape"/>
</filter>
</defs>
</svg>
