<svg width="268" height="308" viewBox="0 0 268 308" fill="none" xmlns="http://www.w3.org/2000/svg">
<path d="M62.8379 82.5352H64.8789L65.1133 92.5547H62.6035L62.8379 82.5352ZM65.1719 79.5176C65.1719 79.8822 65.0547 80.1882 64.8203 80.4355C64.5859 80.6764 64.2572 80.7969 63.834 80.7969C63.4043 80.7969 63.0723 80.6764 62.8379 80.4355C62.6035 80.1882 62.4863 79.8822 62.4863 79.5176C62.4863 79.1595 62.6035 78.86 62.8379 78.6191C63.0723 78.3717 63.4043 78.248 63.834 78.248C64.2572 78.248 64.5859 78.3717 64.8203 78.6191C65.0547 78.86 65.1719 79.1595 65.1719 79.5176ZM79.3551 89H76.8941V82.6816H70.5367V89H68.066V74.7812H70.5367V80.6992H76.8941V74.7812H79.3551V89ZM81.7609 83.6191C81.7609 82.584 81.966 81.653 82.3762 80.8262C82.7863 79.9928 83.3625 79.3548 84.1047 78.9121C84.8469 78.4629 85.6997 78.2383 86.6633 78.2383C88.0891 78.2383 89.2447 78.6973 90.1301 79.6152C91.022 80.5332 91.5038 81.7507 91.5754 83.2676L91.5852 83.8242C91.5852 84.8659 91.3833 85.7969 90.9797 86.6172C90.5826 87.4375 90.0096 88.0723 89.2609 88.5215C88.5187 88.9707 87.6594 89.1953 86.6828 89.1953C85.1919 89.1953 83.9973 88.7005 83.0988 87.7109C82.2069 86.7148 81.7609 85.39 81.7609 83.7363V83.6191ZM84.134 83.8242C84.134 84.9115 84.3586 85.7643 84.8078 86.3828C85.257 86.9948 85.882 87.3008 86.6828 87.3008C87.4836 87.3008 88.1053 86.9883 88.548 86.3633C88.9973 85.7383 89.2219 84.8236 89.2219 83.6191C89.2219 82.5514 88.9908 81.7051 88.5285 81.0801C88.0728 80.4551 87.451 80.1426 86.6633 80.1426C85.8885 80.1426 85.2733 80.4518 84.8176 81.0703C84.3618 81.6823 84.134 82.6003 84.134 83.8242ZM96.2664 89H93.8934V74H96.2664V89ZM105.323 89C105.218 88.7982 105.127 88.4694 105.049 88.0137C104.294 88.8014 103.37 89.1953 102.276 89.1953C101.215 89.1953 100.349 88.8926 99.6781 88.2871C99.0076 87.6816 98.6723 86.9329 98.6723 86.041C98.6723 84.9147 99.0889 84.0521 99.9223 83.4531C100.762 82.8477 101.96 82.5449 103.516 82.5449H104.971V81.8516C104.971 81.3047 104.818 80.8685 104.512 80.543C104.206 80.2109 103.741 80.0449 103.116 80.0449C102.575 80.0449 102.133 80.1816 101.787 80.4551C101.442 80.722 101.27 81.0638 101.27 81.4805H98.8969C98.8969 80.901 99.0889 80.3607 99.473 79.8594C99.8572 79.3516 100.378 78.9544 101.036 78.668C101.7 78.3815 102.439 78.2383 103.252 78.2383C104.489 78.2383 105.476 78.5508 106.211 79.1758C106.947 79.7943 107.325 80.6667 107.344 81.793V86.5586C107.344 87.5091 107.478 88.2676 107.745 88.834V89H105.323ZM102.715 87.291C103.184 87.291 103.623 87.1771 104.034 86.9492C104.45 86.7214 104.763 86.4154 104.971 86.0312V84.0391H103.692C102.813 84.0391 102.152 84.1921 101.709 84.498C101.267 84.804 101.045 85.237 101.045 85.7969C101.045 86.2526 101.195 86.6172 101.495 86.8906C101.801 87.1576 102.207 87.291 102.715 87.291ZM123.533 82.9746H117.81V89H115.339V74.7812H124.373V76.7734H117.81V81.002H123.533V82.9746ZM131.534 80.6016C131.222 80.5495 130.9 80.5234 130.568 80.5234C129.48 80.5234 128.748 80.9401 128.37 81.7734V89H125.997V78.4336H128.263L128.321 79.6152C128.894 78.6973 129.689 78.2383 130.704 78.2383C131.043 78.2383 131.323 78.2839 131.544 78.375L131.534 80.6016ZM139.204 89C139.1 88.7982 139.009 88.4694 138.93 88.0137C138.175 88.8014 137.251 89.1953 136.157 89.1953C135.096 89.1953 134.23 88.8926 133.559 88.2871C132.889 87.6816 132.554 86.9329 132.554 86.041C132.554 84.9147 132.97 84.0521 133.804 83.4531C134.643 82.8477 135.841 82.5449 137.397 82.5449H138.852V81.8516C138.852 81.3047 138.699 80.8685 138.393 80.543C138.087 80.2109 137.622 80.0449 136.997 80.0449C136.457 80.0449 136.014 80.1816 135.669 80.4551C135.324 80.722 135.151 81.0638 135.151 81.4805H132.778C132.778 80.901 132.97 80.3607 133.354 79.8594C133.738 79.3516 134.259 78.9544 134.917 78.668C135.581 78.3815 136.32 78.2383 137.134 78.2383C138.371 78.2383 139.357 78.5508 140.093 79.1758C140.828 79.7943 141.206 80.6667 141.225 81.793V86.5586C141.225 87.5091 141.359 88.2676 141.626 88.834V89H139.204ZM136.596 87.291C137.065 87.291 137.505 87.1771 137.915 86.9492C138.332 86.7214 138.644 86.4154 138.852 86.0312V84.0391H137.573C136.694 84.0391 136.033 84.1921 135.591 84.498C135.148 84.804 134.927 85.237 134.927 85.7969C134.927 86.2526 135.076 86.6172 135.376 86.8906C135.682 87.1576 136.089 87.291 136.596 87.291ZM146.063 78.4336L146.131 79.6543C146.912 78.7103 147.938 78.2383 149.207 78.2383C151.408 78.2383 152.528 79.498 152.567 82.0176V89H150.194V82.1543C150.194 81.4837 150.047 80.9889 149.754 80.6699C149.468 80.3444 148.996 80.1816 148.338 80.1816C147.381 80.1816 146.668 80.6146 146.2 81.4805V89H143.827V78.4336H146.063ZM159.484 87.3008C160.077 87.3008 160.568 87.1283 160.959 86.7832C161.35 86.4382 161.558 86.0117 161.584 85.5039H163.82C163.794 86.1615 163.589 86.7767 163.205 87.3496C162.821 87.916 162.3 88.3652 161.643 88.6973C160.985 89.0293 160.275 89.1953 159.514 89.1953C158.036 89.1953 156.864 88.7168 155.998 87.7598C155.132 86.8027 154.699 85.4811 154.699 83.7949V83.5508C154.699 81.9427 155.129 80.6569 155.988 79.6934C156.848 78.7233 158.02 78.2383 159.504 78.2383C160.76 78.2383 161.783 78.6061 162.57 79.3418C163.365 80.071 163.781 81.0312 163.82 82.2227H161.584C161.558 81.6172 161.35 81.1191 160.959 80.7285C160.575 80.3379 160.083 80.1426 159.484 80.1426C158.716 80.1426 158.124 80.4225 157.707 80.9824C157.29 81.5358 157.079 82.3789 157.072 83.5117V83.8926C157.072 85.0384 157.277 85.8945 157.688 86.4609C158.104 87.0208 158.703 87.3008 159.484 87.3008ZM168.287 89H165.914V78.4336H168.287V89ZM165.767 75.6895C165.767 75.3249 165.881 75.0221 166.109 74.7812C166.343 74.5404 166.675 74.4199 167.105 74.4199C167.535 74.4199 167.867 74.5404 168.101 74.7812C168.336 75.0221 168.453 75.3249 168.453 75.6895C168.453 76.0475 168.336 76.347 168.101 76.5879C167.867 76.8223 167.535 76.9395 167.105 76.9395C166.675 76.9395 166.343 76.8223 166.109 76.5879C165.881 76.347 165.767 76.0475 165.767 75.6895ZM176.952 86.1289C176.952 85.7057 176.777 85.3835 176.425 85.1621C176.08 84.9408 175.504 84.7454 174.696 84.5762C173.889 84.4069 173.215 84.1921 172.675 83.9316C171.49 83.3587 170.898 82.5286 170.898 81.4414C170.898 80.5299 171.282 79.7682 172.05 79.1562C172.818 78.5443 173.795 78.2383 174.98 78.2383C176.243 78.2383 177.262 78.5508 178.036 79.1758C178.818 79.8008 179.208 80.6113 179.208 81.6074H176.835C176.835 81.1517 176.666 80.7741 176.327 80.4746C175.989 80.1686 175.54 80.0156 174.98 80.0156C174.459 80.0156 174.032 80.1361 173.7 80.377C173.375 80.6178 173.212 80.9401 173.212 81.3438C173.212 81.7083 173.365 81.9915 173.671 82.1934C173.977 82.3952 174.596 82.6003 175.527 82.8086C176.458 83.0104 177.187 83.2546 177.714 83.541C178.248 83.821 178.642 84.1595 178.896 84.5566C179.156 84.9538 179.286 85.4355 179.286 86.002C179.286 86.9525 178.892 87.724 178.105 88.3164C177.317 88.9023 176.285 89.1953 175.009 89.1953C174.143 89.1953 173.372 89.0391 172.695 88.7266C172.017 88.4141 171.49 87.9844 171.113 87.4375C170.735 86.8906 170.546 86.3014 170.546 85.6699H172.851C172.883 86.2298 173.095 86.6628 173.486 86.9688C173.876 87.2682 174.394 87.418 175.038 87.418C175.663 87.418 176.139 87.3008 176.464 87.0664C176.79 86.8255 176.952 86.513 176.952 86.1289ZM185.852 87.3008C186.445 87.3008 186.936 87.1283 187.327 86.7832C187.718 86.4382 187.926 86.0117 187.952 85.5039H190.188C190.162 86.1615 189.957 86.7767 189.573 87.3496C189.189 87.916 188.668 88.3652 188.011 88.6973C187.353 89.0293 186.643 89.1953 185.882 89.1953C184.404 89.1953 183.232 88.7168 182.366 87.7598C181.5 86.8027 181.067 85.4811 181.067 83.7949V83.5508C181.067 81.9427 181.497 80.6569 182.356 79.6934C183.216 78.7233 184.387 78.2383 185.872 78.2383C187.128 78.2383 188.151 78.6061 188.938 79.3418C189.733 80.071 190.149 81.0312 190.188 82.2227H187.952C187.926 81.6172 187.718 81.1191 187.327 80.7285C186.943 80.3379 186.451 80.1426 185.852 80.1426C185.084 80.1426 184.492 80.4225 184.075 80.9824C183.658 81.5358 183.447 82.3789 183.44 83.5117V83.8926C183.44 85.0384 183.645 85.8945 184.055 86.4609C184.472 87.0208 185.071 87.3008 185.852 87.3008ZM191.686 83.6191C191.686 82.584 191.891 81.653 192.301 80.8262C192.711 79.9928 193.288 79.3548 194.03 78.9121C194.772 78.4629 195.625 78.2383 196.588 78.2383C198.014 78.2383 199.17 78.6973 200.055 79.6152C200.947 80.5332 201.429 81.7507 201.5 83.2676L201.51 83.8242C201.51 84.8659 201.308 85.7969 200.905 86.6172C200.508 87.4375 199.935 88.0723 199.186 88.5215C198.444 88.9707 197.584 89.1953 196.608 89.1953C195.117 89.1953 193.922 88.7005 193.024 87.7109C192.132 86.7148 191.686 85.39 191.686 83.7363V83.6191ZM194.059 83.8242C194.059 84.9115 194.284 85.7643 194.733 86.3828C195.182 86.9948 195.807 87.3008 196.608 87.3008C197.409 87.3008 198.03 86.9883 198.473 86.3633C198.922 85.7383 199.147 84.8236 199.147 83.6191C199.147 82.5514 198.916 81.7051 198.454 81.0801C197.998 80.4551 197.376 80.1426 196.588 80.1426C195.814 80.1426 195.198 80.4518 194.743 81.0703C194.287 81.6823 194.059 82.6003 194.059 83.8242ZM206.182 84.8105H204.141L203.916 74.7812H206.416L206.182 84.8105ZM203.848 87.877C203.848 87.5059 203.968 87.1999 204.209 86.959C204.45 86.7116 204.779 86.5879 205.195 86.5879C205.612 86.5879 205.941 86.7116 206.182 86.959C206.423 87.1999 206.543 87.5059 206.543 87.877C206.543 88.235 206.426 88.5345 206.191 88.7754C205.957 89.0163 205.625 89.1367 205.195 89.1367C204.766 89.1367 204.434 89.0163 204.199 88.7754C203.965 88.5345 203.848 88.235 203.848 87.877Z" fill="black"/>
<path d="M14.8484 118.031H10.0828L9.0125 121H7.46562L11.8094 109.625H13.1219L17.4734 121H15.9344L14.8484 118.031ZM10.5359 116.797H14.4031L12.4656 111.477L10.5359 116.797ZM24.0531 120.164C23.4906 120.826 22.6651 121.156 21.5766 121.156C20.6755 121.156 19.988 120.896 19.5141 120.375C19.0453 119.849 18.8083 119.073 18.8031 118.047V112.547H20.2484V118.008C20.2484 119.289 20.7693 119.93 21.8109 119.93C22.9151 119.93 23.6495 119.518 24.0141 118.695V112.547H25.4594V121H24.0844L24.0531 120.164ZM22.8812 109H24.6312L22.5375 111.297H21.3734L22.8812 109ZM29.1797 112.547L29.2266 113.609C29.8724 112.797 30.7161 112.391 31.7578 112.391C33.5443 112.391 34.4453 113.398 34.4609 115.414V121H33.0156V115.406C33.0104 114.797 32.8698 114.346 32.5937 114.055C32.3229 113.763 31.8984 113.617 31.3203 113.617C30.8516 113.617 30.4401 113.742 30.0859 113.992C29.7318 114.242 29.4557 114.57 29.2578 114.977V121H27.8125V112.547H29.1797ZM42.2766 112.547L42.3234 113.609C42.9693 112.797 43.813 112.391 44.8547 112.391C46.6411 112.391 47.5422 113.398 47.5578 115.414V121H46.1125V115.406C46.1073 114.797 45.9667 114.346 45.6906 114.055C45.4198 113.763 44.9953 113.617 44.4172 113.617C43.9484 113.617 43.537 113.742 43.1828 113.992C42.8286 114.242 42.5526 114.57 42.3547 114.977V121H40.9094V112.547H42.2766ZM49.5047 116.695C49.5047 115.867 49.6661 115.122 49.9891 114.461C50.3172 113.799 50.7703 113.289 51.3484 112.93C51.9318 112.57 52.5958 112.391 53.3406 112.391C54.4917 112.391 55.4214 112.789 56.1297 113.586C56.8432 114.383 57.2 115.443 57.2 116.766V116.867C57.2 117.69 57.0411 118.43 56.7234 119.086C56.4109 119.737 55.9604 120.245 55.3719 120.609C54.7885 120.974 54.1167 121.156 53.3562 121.156C52.2104 121.156 51.2807 120.758 50.5672 119.961C49.8589 119.164 49.5047 118.109 49.5047 116.797V116.695ZM50.9578 116.867C50.9578 117.805 51.174 118.557 51.6062 119.125C52.0437 119.693 52.6271 119.977 53.3562 119.977C54.0906 119.977 54.674 119.69 55.1062 119.117C55.5385 118.539 55.7547 117.732 55.7547 116.695C55.7547 115.768 55.5333 115.018 55.0906 114.445C54.6531 113.867 54.0698 113.578 53.3406 113.578C52.6271 113.578 52.0516 113.862 51.6141 114.43C51.1766 114.997 50.9578 115.81 50.9578 116.867ZM64.7266 113.57C65.3672 112.784 66.2005 112.391 67.2266 112.391C69.013 112.391 69.9141 113.398 69.9297 115.414V121H68.4844V115.406C68.4792 114.797 68.3385 114.346 68.0625 114.055C67.7917 113.763 67.3672 113.617 66.7891 113.617C66.3203 113.617 65.9089 113.742 65.5547 113.992C65.2005 114.242 64.9245 114.57 64.7266 114.977V121H63.2812V109H64.7266V113.57ZM77.4625 121C77.3792 120.833 77.3115 120.536 77.2594 120.109C76.5875 120.807 75.7854 121.156 74.8531 121.156C74.0198 121.156 73.3349 120.922 72.7984 120.453C72.2672 119.979 72.0016 119.38 72.0016 118.656C72.0016 117.776 72.3349 117.094 73.0016 116.609C73.6734 116.12 74.6161 115.875 75.8297 115.875H77.2359V115.211C77.2359 114.706 77.0849 114.305 76.7828 114.008C76.4807 113.706 76.0354 113.555 75.4469 113.555C74.9312 113.555 74.499 113.685 74.15 113.945C73.801 114.206 73.6266 114.521 73.6266 114.891H72.1734C72.1734 114.469 72.3219 114.062 72.6187 113.672C72.9208 113.276 73.3271 112.964 73.8375 112.734C74.3531 112.505 74.9182 112.391 75.5328 112.391C76.5068 112.391 77.2698 112.635 77.8219 113.125C78.374 113.609 78.6604 114.279 78.6812 115.133V119.023C78.6812 119.799 78.7802 120.417 78.9781 120.875V121H77.4625ZM75.0641 119.898C75.5172 119.898 75.9469 119.781 76.3531 119.547C76.7594 119.312 77.0536 119.008 77.2359 118.633V116.898H76.1031C74.3323 116.898 73.4469 117.417 73.4469 118.453C73.4469 118.906 73.5979 119.26 73.9 119.516C74.2021 119.771 74.5901 119.898 75.0641 119.898ZM83.7375 118.883L85.7062 112.547H87.2531L83.8547 122.305C83.3286 123.711 82.4927 124.414 81.3469 124.414L81.0734 124.391L80.5344 124.289V123.117L80.925 123.148C81.4146 123.148 81.7948 123.049 82.0656 122.852C82.3417 122.654 82.5682 122.292 82.7453 121.766L83.0656 120.906L80.05 112.547H81.6281L83.7375 118.883ZM99.9594 116.867C99.9594 118.154 99.6651 119.19 99.0766 119.977C98.488 120.763 97.6911 121.156 96.6859 121.156C95.6599 121.156 94.8526 120.831 94.2641 120.18V124.25H92.8187V112.547H94.1391L94.2094 113.484C94.7979 112.755 95.6156 112.391 96.6625 112.391C97.6781 112.391 98.4802 112.773 99.0687 113.539C99.6625 114.305 99.9594 115.37 99.9594 116.734V116.867ZM98.5141 116.703C98.5141 115.75 98.3109 114.997 97.9047 114.445C97.4984 113.893 96.9411 113.617 96.2328 113.617C95.3578 113.617 94.7016 114.005 94.2641 114.781V118.82C94.6964 119.591 95.3578 119.977 96.2484 119.977C96.9411 119.977 97.4906 119.703 97.8969 119.156C98.3083 118.604 98.5141 117.786 98.5141 116.703ZM106.039 113.844C105.82 113.807 105.583 113.789 105.328 113.789C104.38 113.789 103.737 114.193 103.398 115V121H101.953V112.547H103.359L103.383 113.523C103.857 112.768 104.529 112.391 105.398 112.391C105.68 112.391 105.893 112.427 106.039 112.5V113.844ZM106.986 116.695C106.986 115.867 107.147 115.122 107.47 114.461C107.798 113.799 108.252 113.289 108.83 112.93C109.413 112.57 110.077 112.391 110.822 112.391C111.973 112.391 112.903 112.789 113.611 113.586C114.324 114.383 114.681 115.443 114.681 116.766V116.867C114.681 117.69 114.522 118.43 114.205 119.086C113.892 119.737 113.442 120.245 112.853 120.609C112.27 120.974 111.598 121.156 110.837 121.156C109.692 121.156 108.762 120.758 108.048 119.961C107.34 119.164 106.986 118.109 106.986 116.797V116.695ZM108.439 116.867C108.439 117.805 108.655 118.557 109.087 119.125C109.525 119.693 110.108 119.977 110.837 119.977C111.572 119.977 112.155 119.69 112.587 119.117C113.02 118.539 113.236 117.732 113.236 116.695C113.236 115.768 113.015 115.018 112.572 114.445C112.134 113.867 111.551 113.578 110.822 113.578C110.108 113.578 109.533 113.862 109.095 114.43C108.658 114.997 108.439 115.81 108.439 116.867ZM116.292 116.703C116.292 115.406 116.599 114.365 117.214 113.578C117.829 112.786 118.633 112.391 119.628 112.391C120.618 112.391 121.402 112.729 121.98 113.406V109H123.425V121H122.097L122.027 120.094C121.448 120.802 120.644 121.156 119.612 121.156C118.633 121.156 117.834 120.755 117.214 119.953C116.599 119.151 116.292 118.104 116.292 116.812V116.703ZM117.737 116.867C117.737 117.826 117.935 118.576 118.331 119.117C118.727 119.659 119.274 119.93 119.972 119.93C120.889 119.93 121.558 119.518 121.98 118.695V114.812C121.547 114.016 120.883 113.617 119.987 113.617C119.279 113.617 118.727 113.891 118.331 114.438C117.935 114.984 117.737 115.794 117.737 116.867ZM131.044 120.164C130.481 120.826 129.656 121.156 128.567 121.156C127.666 121.156 126.979 120.896 126.505 120.375C126.036 119.849 125.799 119.073 125.794 118.047V112.547H127.239V118.008C127.239 119.289 127.76 119.93 128.802 119.93C129.906 119.93 130.64 119.518 131.005 118.695V112.547H132.45V121H131.075L131.044 120.164ZM138.194 119.977C138.709 119.977 139.16 119.82 139.545 119.508C139.931 119.195 140.144 118.805 140.186 118.336H141.553C141.527 118.82 141.36 119.281 141.053 119.719C140.746 120.156 140.334 120.505 139.819 120.766C139.308 121.026 138.767 121.156 138.194 121.156C137.043 121.156 136.126 120.773 135.444 120.008C134.767 119.237 134.428 118.185 134.428 116.852V116.609C134.428 115.786 134.579 115.055 134.881 114.414C135.183 113.773 135.616 113.276 136.178 112.922C136.746 112.568 137.415 112.391 138.186 112.391C139.134 112.391 139.92 112.674 140.545 113.242C141.176 113.81 141.511 114.547 141.553 115.453H140.186C140.144 114.906 139.936 114.458 139.561 114.109C139.191 113.755 138.733 113.578 138.186 113.578C137.452 113.578 136.881 113.844 136.475 114.375C136.074 114.901 135.873 115.664 135.873 116.664V116.938C135.873 117.911 136.074 118.661 136.475 119.188C136.876 119.714 137.449 119.977 138.194 119.977ZM145.289 110.5V112.547H146.867V113.664H145.289V118.906C145.289 119.245 145.359 119.5 145.5 119.672C145.641 119.839 145.88 119.922 146.219 119.922C146.385 119.922 146.615 119.891 146.906 119.828V121C146.526 121.104 146.156 121.156 145.797 121.156C145.151 121.156 144.664 120.961 144.336 120.57C144.008 120.18 143.844 119.625 143.844 118.906V113.664H142.305V112.547H143.844V110.5H145.289ZM148.173 116.695C148.173 115.867 148.335 115.122 148.658 114.461C148.986 113.799 149.439 113.289 150.017 112.93C150.601 112.57 151.265 112.391 152.009 112.391C153.16 112.391 154.09 112.789 154.798 113.586C155.512 114.383 155.869 115.443 155.869 116.766V116.867C155.869 117.69 155.71 118.43 155.392 119.086C155.08 119.737 154.629 120.245 154.041 120.609C153.457 120.974 152.785 121.156 152.025 121.156C150.879 121.156 149.949 120.758 149.236 119.961C148.528 119.164 148.173 118.109 148.173 116.797V116.695ZM149.627 116.867C149.627 117.805 149.843 118.557 150.275 119.125C150.712 119.693 151.296 119.977 152.025 119.977C152.759 119.977 153.343 119.69 153.775 119.117C154.207 118.539 154.423 117.732 154.423 116.695C154.423 115.768 154.202 115.018 153.759 114.445C153.322 113.867 152.739 113.578 152.009 113.578C151.296 113.578 150.72 113.862 150.283 114.43C149.845 114.997 149.627 115.81 149.627 116.867ZM162.753 118.758C162.753 118.367 162.605 118.065 162.308 117.852C162.016 117.633 161.503 117.445 160.769 117.289C160.04 117.133 159.459 116.945 159.027 116.727C158.599 116.508 158.282 116.247 158.073 115.945C157.87 115.643 157.769 115.284 157.769 114.867C157.769 114.174 158.06 113.589 158.644 113.109C159.232 112.63 159.982 112.391 160.894 112.391C161.852 112.391 162.628 112.638 163.222 113.133C163.821 113.628 164.12 114.26 164.12 115.031H162.667C162.667 114.635 162.498 114.294 162.159 114.008C161.826 113.721 161.404 113.578 160.894 113.578C160.368 113.578 159.956 113.693 159.659 113.922C159.363 114.151 159.214 114.451 159.214 114.82C159.214 115.169 159.352 115.432 159.628 115.609C159.904 115.786 160.402 115.956 161.12 116.117C161.844 116.279 162.43 116.471 162.878 116.695C163.326 116.919 163.657 117.19 163.87 117.508C164.089 117.82 164.198 118.203 164.198 118.656C164.198 119.411 163.896 120.018 163.292 120.477C162.688 120.93 161.904 121.156 160.941 121.156C160.264 121.156 159.665 121.036 159.144 120.797C158.623 120.557 158.214 120.224 157.917 119.797C157.626 119.365 157.48 118.898 157.48 118.398H158.925C158.951 118.883 159.144 119.268 159.503 119.555C159.868 119.836 160.347 119.977 160.941 119.977C161.488 119.977 161.925 119.867 162.253 119.648C162.586 119.424 162.753 119.128 162.753 118.758ZM173.858 121.156C172.712 121.156 171.78 120.781 171.061 120.031C170.342 119.276 169.983 118.268 169.983 117.008V116.742C169.983 115.904 170.142 115.156 170.459 114.5C170.782 113.839 171.23 113.323 171.803 112.953C172.381 112.578 173.006 112.391 173.678 112.391C174.777 112.391 175.631 112.753 176.241 113.477C176.85 114.201 177.155 115.237 177.155 116.586V117.188H171.428C171.449 118.021 171.691 118.695 172.155 119.211C172.623 119.721 173.217 119.977 173.936 119.977C174.446 119.977 174.879 119.872 175.233 119.664C175.587 119.456 175.897 119.18 176.162 118.836L177.045 119.523C176.337 120.612 175.274 121.156 173.858 121.156ZM173.678 113.578C173.095 113.578 172.605 113.792 172.209 114.219C171.814 114.641 171.569 115.234 171.475 116H175.709V115.891C175.668 115.156 175.47 114.589 175.116 114.188C174.761 113.781 174.282 113.578 173.678 113.578ZM180.352 112.547L180.398 113.609C181.044 112.797 181.888 112.391 182.93 112.391C184.716 112.391 185.617 113.398 185.633 115.414V121H184.188V115.406C184.182 114.797 184.042 114.346 183.766 114.055C183.495 113.763 183.07 113.617 182.492 113.617C182.023 113.617 181.612 113.742 181.258 113.992C180.904 114.242 180.628 114.57 180.43 114.977V121H178.984V112.547H180.352ZM194.042 110.5V112.547H195.62V113.664H194.042V118.906C194.042 119.245 194.113 119.5 194.253 119.672C194.394 119.839 194.633 119.922 194.972 119.922C195.139 119.922 195.368 119.891 195.659 119.828V121C195.279 121.104 194.909 121.156 194.55 121.156C193.904 121.156 193.417 120.961 193.089 120.57C192.761 120.18 192.597 119.625 192.597 118.906V113.664H191.058V112.547H192.597V110.5H194.042ZM202.684 120.164C202.122 120.826 201.296 121.156 200.208 121.156C199.307 121.156 198.619 120.896 198.145 120.375C197.677 119.849 197.44 119.073 197.434 118.047V112.547H198.88V118.008C198.88 119.289 199.401 119.93 200.442 119.93C201.546 119.93 202.281 119.518 202.645 118.695V112.547H204.091V121H202.716L202.684 120.164ZM213.953 119.977C214.469 119.977 214.919 119.82 215.305 119.508C215.69 119.195 215.904 118.805 215.945 118.336H217.312C217.286 118.82 217.12 119.281 216.812 119.719C216.505 120.156 216.094 120.505 215.578 120.766C215.068 121.026 214.526 121.156 213.953 121.156C212.802 121.156 211.885 120.773 211.203 120.008C210.526 119.237 210.188 118.185 210.188 116.852V116.609C210.188 115.786 210.339 115.055 210.641 114.414C210.943 113.773 211.375 113.276 211.938 112.922C212.505 112.568 213.174 112.391 213.945 112.391C214.893 112.391 215.68 112.674 216.305 113.242C216.935 113.81 217.271 114.547 217.312 115.453H215.945C215.904 114.906 215.695 114.458 215.32 114.109C214.951 113.755 214.492 113.578 213.945 113.578C213.211 113.578 212.641 113.844 212.234 114.375C211.833 114.901 211.633 115.664 211.633 116.664V116.938C211.633 117.911 211.833 118.661 212.234 119.188C212.635 119.714 213.208 119.977 213.953 119.977ZM224.306 121C224.223 120.833 224.155 120.536 224.103 120.109C223.431 120.807 222.629 121.156 221.697 121.156C220.864 121.156 220.179 120.922 219.642 120.453C219.111 119.979 218.845 119.38 218.845 118.656C218.845 117.776 219.179 117.094 219.845 116.609C220.517 116.12 221.46 115.875 222.673 115.875H224.08V115.211C224.08 114.706 223.929 114.305 223.627 114.008C223.324 113.706 222.879 113.555 222.291 113.555C221.775 113.555 221.343 113.685 220.994 113.945C220.645 114.206 220.47 114.521 220.47 114.891H219.017C219.017 114.469 219.166 114.062 219.462 113.672C219.765 113.276 220.171 112.964 220.681 112.734C221.197 112.505 221.762 112.391 222.377 112.391C223.351 112.391 224.114 112.635 224.666 113.125C225.218 113.609 225.504 114.279 225.525 115.133V119.023C225.525 119.799 225.624 120.417 225.822 120.875V121H224.306ZM221.908 119.898C222.361 119.898 222.791 119.781 223.197 119.547C223.603 119.312 223.897 119.008 224.08 118.633V116.898H222.947C221.176 116.898 220.291 117.417 220.291 118.453C220.291 118.906 220.442 119.26 220.744 119.516C221.046 119.771 221.434 119.898 221.908 119.898ZM232.027 113.844C231.808 113.807 231.571 113.789 231.316 113.789C230.368 113.789 229.724 114.193 229.386 115V121H227.941V112.547H229.347L229.37 113.523C229.844 112.768 230.516 112.391 231.386 112.391C231.667 112.391 231.881 112.427 232.027 112.5V113.844ZM237.598 113.844C237.38 113.807 237.143 113.789 236.887 113.789C235.94 113.789 235.296 114.193 234.958 115V121H233.512V112.547H234.919L234.942 113.523C235.416 112.768 236.088 112.391 236.958 112.391C237.239 112.391 237.453 112.427 237.598 112.5V113.844ZM240.655 121H239.209V112.547H240.655V121ZM239.092 110.305C239.092 110.07 239.162 109.872 239.303 109.711C239.449 109.549 239.662 109.469 239.944 109.469C240.225 109.469 240.439 109.549 240.584 109.711C240.73 109.872 240.803 110.07 240.803 110.305C240.803 110.539 240.73 110.734 240.584 110.891C240.439 111.047 240.225 111.125 239.944 111.125C239.662 111.125 239.449 111.047 239.303 110.891C239.162 110.734 239.092 110.539 239.092 110.305ZM245.086 110.5V112.547H246.664V113.664H245.086V118.906C245.086 119.245 245.156 119.5 245.297 119.672C245.438 119.839 245.677 119.922 246.016 119.922C246.182 119.922 246.411 119.891 246.703 119.828V121C246.323 121.104 245.953 121.156 245.594 121.156C244.948 121.156 244.461 120.961 244.133 120.57C243.805 120.18 243.641 119.625 243.641 118.906V113.664H242.102V112.547H243.641V110.5H245.086ZM247.97 116.695C247.97 115.867 248.132 115.122 248.455 114.461C248.783 113.799 249.236 113.289 249.814 112.93C250.397 112.57 251.061 112.391 251.806 112.391C252.957 112.391 253.887 112.789 254.595 113.586C255.309 114.383 255.666 115.443 255.666 116.766V116.867C255.666 117.69 255.507 118.43 255.189 119.086C254.877 119.737 254.426 120.245 253.837 120.609C253.254 120.974 252.582 121.156 251.822 121.156C250.676 121.156 249.746 120.758 249.033 119.961C248.324 119.164 247.97 118.109 247.97 116.797V116.695ZM249.423 116.867C249.423 117.805 249.64 118.557 250.072 119.125C250.509 119.693 251.093 119.977 251.822 119.977C252.556 119.977 253.14 119.69 253.572 119.117C254.004 118.539 254.22 117.732 254.22 116.695C254.22 115.768 253.999 115.018 253.556 114.445C253.119 113.867 252.535 113.578 251.806 113.578C251.093 113.578 250.517 113.862 250.08 114.43C249.642 114.997 249.423 115.81 249.423 116.867ZM257.659 120.242C257.659 119.992 257.732 119.784 257.878 119.617C258.029 119.451 258.253 119.367 258.55 119.367C258.847 119.367 259.071 119.451 259.222 119.617C259.378 119.784 259.456 119.992 259.456 120.242C259.456 120.482 259.378 120.682 259.222 120.844C259.071 121.005 258.847 121.086 258.55 121.086C258.253 121.086 258.029 121.005 257.878 120.844C257.732 120.682 257.659 120.482 257.659 120.242ZM26.0641 135.398H23.3922V140H21.8844V128.625H25.65C26.9313 128.625 27.9156 128.917 28.6031 129.5C29.2958 130.083 29.6422 130.932 29.6422 132.047C29.6422 132.755 29.4495 133.372 29.0641 133.898C28.6839 134.424 28.1526 134.818 27.4703 135.078L30.1422 139.906V140H28.5328L26.0641 135.398ZM23.3922 134.172H25.6969C26.4417 134.172 27.0328 133.979 27.4703 133.594C27.913 133.208 28.1344 132.693 28.1344 132.047C28.1344 131.344 27.9234 130.805 27.5016 130.43C27.0849 130.055 26.4807 129.865 25.6891 129.859H23.3922V134.172ZM35.1828 140.156C34.037 140.156 33.1047 139.781 32.3859 139.031C31.6672 138.276 31.3078 137.268 31.3078 136.008V135.742C31.3078 134.904 31.4667 134.156 31.7844 133.5C32.1073 132.839 32.5552 132.323 33.1281 131.953C33.7063 131.578 34.3313 131.391 35.0031 131.391C36.1021 131.391 36.9563 131.753 37.5656 132.477C38.175 133.201 38.4797 134.237 38.4797 135.586V136.188H32.7531C32.774 137.021 33.0161 137.695 33.4797 138.211C33.9484 138.721 34.5422 138.977 35.2609 138.977C35.7714 138.977 36.2036 138.872 36.5578 138.664C36.912 138.456 37.2219 138.18 37.4875 137.836L38.3703 138.523C37.662 139.612 36.5995 140.156 35.1828 140.156ZM35.0031 132.578C34.4198 132.578 33.9302 132.792 33.5344 133.219C33.1385 133.641 32.8938 134.234 32.8 135H37.0344V134.891C36.9927 134.156 36.7948 133.589 36.4406 133.188C36.0865 132.781 35.6073 132.578 35.0031 132.578ZM43.7 138.977C44.2156 138.977 44.6661 138.82 45.0516 138.508C45.437 138.195 45.6505 137.805 45.6922 137.336H47.0594C47.0333 137.82 46.8667 138.281 46.5594 138.719C46.2521 139.156 45.8406 139.505 45.325 139.766C44.8146 140.026 44.2729 140.156 43.7 140.156C42.549 140.156 41.6323 139.773 40.95 139.008C40.2729 138.237 39.9344 137.185 39.9344 135.852V135.609C39.9344 134.786 40.0854 134.055 40.3875 133.414C40.6896 132.773 41.1219 132.276 41.6844 131.922C42.2521 131.568 42.9214 131.391 43.6922 131.391C44.6401 131.391 45.4266 131.674 46.0516 132.242C46.6818 132.81 47.0177 133.547 47.0594 134.453H45.6922C45.6505 133.906 45.4422 133.458 45.0672 133.109C44.6974 132.755 44.2391 132.578 43.6922 132.578C42.9578 132.578 42.3875 132.844 41.9813 133.375C41.5802 133.901 41.3797 134.664 41.3797 135.664V135.938C41.3797 136.911 41.5802 137.661 41.9813 138.188C42.3823 138.714 42.9552 138.977 43.7 138.977ZM54.0531 139.164C53.4906 139.826 52.6651 140.156 51.5766 140.156C50.6755 140.156 49.988 139.896 49.5141 139.375C49.0453 138.849 48.8083 138.073 48.8031 137.047V131.547H50.2484V137.008C50.2484 138.289 50.7693 138.93 51.8109 138.93C52.9151 138.93 53.6495 138.518 54.0141 137.695V131.547H55.4594V140H54.0844L54.0531 139.164ZM61.3203 140.156C60.1745 140.156 59.2422 139.781 58.5234 139.031C57.8047 138.276 57.4453 137.268 57.4453 136.008V135.742C57.4453 134.904 57.6042 134.156 57.9219 133.5C58.2448 132.839 58.6927 132.323 59.2656 131.953C59.8438 131.578 60.4688 131.391 61.1406 131.391C62.2396 131.391 63.0938 131.753 63.7031 132.477C64.3125 133.201 64.6172 134.237 64.6172 135.586V136.188H58.8906C58.9115 137.021 59.1536 137.695 59.6172 138.211C60.0859 138.721 60.6797 138.977 61.3984 138.977C61.9089 138.977 62.3411 138.872 62.6953 138.664C63.0495 138.456 63.3594 138.18 63.625 137.836L64.5078 138.523C63.7995 139.612 62.737 140.156 61.3203 140.156ZM61.1406 132.578C60.5573 132.578 60.0677 132.792 59.6719 133.219C59.276 133.641 59.0312 134.234 58.9375 135H63.1719V134.891C63.1302 134.156 62.9323 133.589 62.5781 133.188C62.224 132.781 61.7448 132.578 61.1406 132.578ZM70.5328 132.844C70.3141 132.807 70.0771 132.789 69.8219 132.789C68.874 132.789 68.2307 133.193 67.8922 134V140H66.4469V131.547H67.8531L67.8766 132.523C68.3505 131.768 69.0224 131.391 69.8922 131.391C70.1734 131.391 70.387 131.427 70.5328 131.5V132.844ZM71.5109 135.703C71.5109 134.406 71.8182 133.365 72.4328 132.578C73.0474 131.786 73.8521 131.391 74.8469 131.391C75.8365 131.391 76.6203 131.729 77.1984 132.406V128H78.6438V140H77.3156L77.2453 139.094C76.6672 139.802 75.8625 140.156 74.8313 140.156C73.8521 140.156 73.0526 139.755 72.4328 138.953C71.8182 138.151 71.5109 137.104 71.5109 135.812V135.703ZM72.9563 135.867C72.9563 136.826 73.1542 137.576 73.55 138.117C73.9458 138.659 74.4927 138.93 75.1906 138.93C76.1073 138.93 76.7766 138.518 77.1984 137.695V133.812C76.7661 133.016 76.1021 132.617 75.2063 132.617C74.4979 132.617 73.9458 132.891 73.55 133.438C73.1542 133.984 72.9563 134.794 72.9563 135.867ZM86.2625 140C86.1792 139.833 86.1115 139.536 86.0594 139.109C85.3875 139.807 84.5854 140.156 83.6531 140.156C82.8198 140.156 82.1349 139.922 81.5984 139.453C81.0672 138.979 80.8016 138.38 80.8016 137.656C80.8016 136.776 81.1349 136.094 81.8016 135.609C82.4734 135.12 83.4161 134.875 84.6297 134.875H86.0359V134.211C86.0359 133.706 85.8849 133.305 85.5828 133.008C85.2807 132.706 84.8354 132.555 84.2469 132.555C83.7312 132.555 83.299 132.685 82.95 132.945C82.601 133.206 82.4266 133.521 82.4266 133.891H80.9734C80.9734 133.469 81.1219 133.062 81.4187 132.672C81.7208 132.276 82.1271 131.964 82.6375 131.734C83.1531 131.505 83.7182 131.391 84.3328 131.391C85.3068 131.391 86.0698 131.635 86.6219 132.125C87.174 132.609 87.4604 133.279 87.4812 134.133V138.023C87.4812 138.799 87.5802 139.417 87.7781 139.875V140H86.2625ZM83.8641 138.898C84.3172 138.898 84.7469 138.781 85.1531 138.547C85.5594 138.312 85.8536 138.008 86.0359 137.633V135.898H84.9031C83.1323 135.898 82.2469 136.417 82.2469 137.453C82.2469 137.906 82.3979 138.26 82.7 138.516C83.0021 138.771 83.3901 138.898 83.8641 138.898ZM93.6641 135.703C93.6641 134.375 93.9688 133.326 94.5781 132.555C95.1875 131.779 96.0052 131.391 97.0312 131.391C98.0312 131.391 98.8203 131.727 99.3984 132.398L99.4609 131.547H100.789V143.25H99.3438V139.219C98.7604 139.844 97.9844 140.156 97.0156 140.156C95.9948 140.156 95.1797 139.76 94.5703 138.969C93.9661 138.172 93.6641 137.117 93.6641 135.805V135.703ZM95.1094 135.867C95.1094 136.836 95.3125 137.596 95.7188 138.148C96.1302 138.701 96.6823 138.977 97.375 138.977C98.2344 138.977 98.8906 138.596 99.3438 137.836V133.695C98.8854 132.951 98.2344 132.578 97.3906 132.578C96.6927 132.578 96.138 132.857 95.7266 133.414C95.3151 133.966 95.1094 134.784 95.1094 135.867ZM108.478 139.164C107.916 139.826 107.09 140.156 106.002 140.156C105.101 140.156 104.413 139.896 103.939 139.375C103.47 138.849 103.233 138.073 103.228 137.047V131.547H104.673V137.008C104.673 138.289 105.194 138.93 106.236 138.93C107.34 138.93 108.074 138.518 108.439 137.695V131.547H109.884V140H108.509L108.478 139.164ZM115.745 140.156C114.599 140.156 113.667 139.781 112.948 139.031C112.23 138.276 111.87 137.268 111.87 136.008V135.742C111.87 134.904 112.029 134.156 112.347 133.5C112.67 132.839 113.118 132.323 113.691 131.953C114.269 131.578 114.894 131.391 115.566 131.391C116.665 131.391 117.519 131.753 118.128 132.477C118.738 133.201 119.042 134.237 119.042 135.586V136.188H113.316C113.336 137.021 113.579 137.695 114.042 138.211C114.511 138.721 115.105 138.977 115.823 138.977C116.334 138.977 116.766 138.872 117.12 138.664C117.474 138.456 117.784 138.18 118.05 137.836L118.933 138.523C118.224 139.612 117.162 140.156 115.745 140.156ZM115.566 132.578C114.982 132.578 114.493 132.792 114.097 133.219C113.701 133.641 113.456 134.234 113.363 135H117.597V134.891C117.555 134.156 117.357 133.589 117.003 133.188C116.649 132.781 116.17 132.578 115.566 132.578ZM132.131 135.867C132.131 137.154 131.837 138.19 131.248 138.977C130.66 139.763 129.863 140.156 128.858 140.156C127.832 140.156 127.024 139.831 126.436 139.18V143.25H124.991V131.547H126.311L126.381 132.484C126.97 131.755 127.787 131.391 128.834 131.391C129.85 131.391 130.652 131.773 131.241 132.539C131.834 133.305 132.131 134.37 132.131 135.734V135.867ZM130.686 135.703C130.686 134.75 130.483 133.997 130.077 133.445C129.67 132.893 129.113 132.617 128.405 132.617C127.53 132.617 126.873 133.005 126.436 133.781V137.82C126.868 138.591 127.53 138.977 128.42 138.977C129.113 138.977 129.662 138.703 130.069 138.156C130.48 137.604 130.686 136.786 130.686 135.703ZM139.344 139.164C138.781 139.826 137.956 140.156 136.867 140.156C135.966 140.156 135.279 139.896 134.805 139.375C134.336 138.849 134.099 138.073 134.094 137.047V131.547H135.539V137.008C135.539 138.289 136.06 138.93 137.102 138.93C138.206 138.93 138.94 138.518 139.305 137.695V131.547H140.75V140H139.375L139.344 139.164ZM146.611 140.156C145.465 140.156 144.533 139.781 143.814 139.031C143.095 138.276 142.736 137.268 142.736 136.008V135.742C142.736 134.904 142.895 134.156 143.212 133.5C143.535 132.839 143.983 132.323 144.556 131.953C145.134 131.578 145.759 131.391 146.431 131.391C147.53 131.391 148.384 131.753 148.994 132.477C149.603 133.201 149.908 134.237 149.908 135.586V136.188H144.181C144.202 137.021 144.444 137.695 144.908 138.211C145.377 138.721 145.97 138.977 146.689 138.977C147.199 138.977 147.632 138.872 147.986 138.664C148.34 138.456 148.65 138.18 148.916 137.836L149.798 138.523C149.09 139.612 148.028 140.156 146.611 140.156ZM146.431 132.578C145.848 132.578 145.358 132.792 144.962 133.219C144.567 133.641 144.322 134.234 144.228 135H148.462V134.891C148.421 134.156 148.223 133.589 147.869 133.188C147.515 132.781 147.035 132.578 146.431 132.578ZM151.386 135.703C151.386 134.406 151.693 133.365 152.308 132.578C152.922 131.786 153.727 131.391 154.722 131.391C155.711 131.391 156.495 131.729 157.073 132.406V128H158.519V140H157.191L157.12 139.094C156.542 139.802 155.737 140.156 154.706 140.156C153.727 140.156 152.928 139.755 152.308 138.953C151.693 138.151 151.386 137.104 151.386 135.812V135.703ZM152.831 135.867C152.831 136.826 153.029 137.576 153.425 138.117C153.821 138.659 154.368 138.93 155.066 138.93C155.982 138.93 156.652 138.518 157.073 137.695V133.812C156.641 133.016 155.977 132.617 155.081 132.617C154.373 132.617 153.821 132.891 153.425 133.438C153.029 133.984 152.831 134.794 152.831 135.867ZM164.427 140.156C163.281 140.156 162.348 139.781 161.63 139.031C160.911 138.276 160.552 137.268 160.552 136.008V135.742C160.552 134.904 160.71 134.156 161.028 133.5C161.351 132.839 161.799 132.323 162.372 131.953C162.95 131.578 163.575 131.391 164.247 131.391C165.346 131.391 166.2 131.753 166.809 132.477C167.419 133.201 167.723 134.237 167.723 135.586V136.188H161.997C162.018 137.021 162.26 137.695 162.723 138.211C163.192 138.721 163.786 138.977 164.505 138.977C165.015 138.977 165.447 138.872 165.802 138.664C166.156 138.456 166.466 138.18 166.731 137.836L167.614 138.523C166.906 139.612 165.843 140.156 164.427 140.156ZM164.247 132.578C163.664 132.578 163.174 132.792 162.778 133.219C162.382 133.641 162.138 134.234 162.044 135H166.278V134.891C166.236 134.156 166.039 133.589 165.684 133.188C165.33 132.781 164.851 132.578 164.247 132.578ZM174.475 137.758C174.475 137.367 174.327 137.065 174.03 136.852C173.738 136.633 173.225 136.445 172.491 136.289C171.761 136.133 171.181 135.945 170.748 135.727C170.321 135.508 170.004 135.247 169.795 134.945C169.592 134.643 169.491 134.284 169.491 133.867C169.491 133.174 169.782 132.589 170.366 132.109C170.954 131.63 171.704 131.391 172.616 131.391C173.574 131.391 174.35 131.638 174.944 132.133C175.543 132.628 175.842 133.26 175.842 134.031H174.389C174.389 133.635 174.22 133.294 173.881 133.008C173.548 132.721 173.126 132.578 172.616 132.578C172.09 132.578 171.678 132.693 171.381 132.922C171.084 133.151 170.936 133.451 170.936 133.82C170.936 134.169 171.074 134.432 171.35 134.609C171.626 134.786 172.123 134.956 172.842 135.117C173.566 135.279 174.152 135.471 174.6 135.695C175.048 135.919 175.379 136.19 175.592 136.508C175.811 136.82 175.92 137.203 175.92 137.656C175.92 138.411 175.618 139.018 175.014 139.477C174.41 139.93 173.626 140.156 172.663 140.156C171.985 140.156 171.386 140.036 170.866 139.797C170.345 139.557 169.936 139.224 169.639 138.797C169.347 138.365 169.202 137.898 169.202 137.398H170.647C170.673 137.883 170.866 138.268 171.225 138.555C171.59 138.836 172.069 138.977 172.663 138.977C173.209 138.977 173.647 138.867 173.975 138.648C174.308 138.424 174.475 138.128 174.475 137.758ZM185.58 140.156C184.434 140.156 183.502 139.781 182.783 139.031C182.064 138.276 181.705 137.268 181.705 136.008V135.742C181.705 134.904 181.864 134.156 182.181 133.5C182.504 132.839 182.952 132.323 183.525 131.953C184.103 131.578 184.728 131.391 185.4 131.391C186.499 131.391 187.353 131.753 187.962 132.477C188.572 133.201 188.877 134.237 188.877 135.586V136.188H183.15C183.171 137.021 183.413 137.695 183.877 138.211C184.345 138.721 184.939 138.977 185.658 138.977C186.168 138.977 186.601 138.872 186.955 138.664C187.309 138.456 187.619 138.18 187.884 137.836L188.767 138.523C188.059 139.612 186.996 140.156 185.58 140.156ZM185.4 132.578C184.817 132.578 184.327 132.792 183.931 133.219C183.535 133.641 183.291 134.234 183.197 135H187.431V134.891C187.39 134.156 187.192 133.589 186.837 133.188C186.483 132.781 186.004 132.578 185.4 132.578ZM195.628 137.758C195.628 137.367 195.48 137.065 195.183 136.852C194.891 136.633 194.378 136.445 193.644 136.289C192.915 136.133 192.334 135.945 191.902 135.727C191.474 135.508 191.157 135.247 190.948 134.945C190.745 134.643 190.644 134.284 190.644 133.867C190.644 133.174 190.935 132.589 191.519 132.109C192.107 131.63 192.857 131.391 193.769 131.391C194.727 131.391 195.503 131.638 196.097 132.133C196.696 132.628 196.995 133.26 196.995 134.031H195.542C195.542 133.635 195.373 133.294 195.034 133.008C194.701 132.721 194.279 132.578 193.769 132.578C193.243 132.578 192.831 132.693 192.534 132.922C192.237 133.151 192.089 133.451 192.089 133.82C192.089 134.169 192.227 134.432 192.503 134.609C192.779 134.786 193.277 134.956 193.995 135.117C194.719 135.279 195.305 135.471 195.753 135.695C196.201 135.919 196.532 136.19 196.745 136.508C196.964 136.82 197.073 137.203 197.073 137.656C197.073 138.411 196.771 139.018 196.167 139.477C195.563 139.93 194.779 140.156 193.816 140.156C193.139 140.156 192.54 140.036 192.019 139.797C191.498 139.557 191.089 139.224 190.792 138.797C190.501 138.365 190.355 137.898 190.355 137.398H191.8C191.826 137.883 192.019 138.268 192.378 138.555C192.743 138.836 193.222 138.977 193.816 138.977C194.362 138.977 194.8 138.867 195.128 138.648C195.461 138.424 195.628 138.128 195.628 137.758ZM202.497 138.977C203.013 138.977 203.463 138.82 203.848 138.508C204.234 138.195 204.447 137.805 204.489 137.336H205.856C205.83 137.82 205.664 138.281 205.356 138.719C205.049 139.156 204.638 139.505 204.122 139.766C203.611 140.026 203.07 140.156 202.497 140.156C201.346 140.156 200.429 139.773 199.747 139.008C199.07 138.237 198.731 137.185 198.731 135.852V135.609C198.731 134.786 198.882 134.055 199.184 133.414C199.486 132.773 199.919 132.276 200.481 131.922C201.049 131.568 201.718 131.391 202.489 131.391C203.437 131.391 204.223 131.674 204.848 132.242C205.479 132.81 205.815 133.547 205.856 134.453H204.489C204.447 133.906 204.239 133.458 203.864 133.109C203.494 132.755 203.036 132.578 202.489 132.578C201.755 132.578 201.184 132.844 200.778 133.375C200.377 133.901 200.177 134.664 200.177 135.664V135.938C200.177 136.911 200.377 137.661 200.778 138.188C201.179 138.714 201.752 138.977 202.497 138.977ZM212.85 140C212.767 139.833 212.699 139.536 212.647 139.109C211.975 139.807 211.173 140.156 210.241 140.156C209.407 140.156 208.722 139.922 208.186 139.453C207.655 138.979 207.389 138.38 207.389 137.656C207.389 136.776 207.722 136.094 208.389 135.609C209.061 135.12 210.004 134.875 211.217 134.875H212.623V134.211C212.623 133.706 212.472 133.305 212.17 133.008C211.868 132.706 211.423 132.555 210.834 132.555C210.319 132.555 209.886 132.685 209.538 132.945C209.189 133.206 209.014 133.521 209.014 133.891H207.561C207.561 133.469 207.709 133.062 208.006 132.672C208.308 132.276 208.715 131.964 209.225 131.734C209.741 131.505 210.306 131.391 210.92 131.391C211.894 131.391 212.657 131.635 213.209 132.125C213.761 132.609 214.048 133.279 214.069 134.133V138.023C214.069 138.799 214.168 139.417 214.366 139.875V140H212.85ZM210.452 138.898C210.905 138.898 211.334 138.781 211.741 138.547C212.147 138.312 212.441 138.008 212.623 137.633V135.898H211.491C209.72 135.898 208.834 136.417 208.834 137.453C208.834 137.906 208.985 138.26 209.288 138.516C209.59 138.771 209.978 138.898 210.452 138.898ZM217.852 131.547L217.898 132.609C218.544 131.797 219.388 131.391 220.43 131.391C222.216 131.391 223.117 132.398 223.133 134.414V140H221.688V134.406C221.682 133.797 221.542 133.346 221.266 133.055C220.995 132.763 220.57 132.617 219.992 132.617C219.523 132.617 219.112 132.742 218.758 132.992C218.404 133.242 218.128 133.57 217.93 133.977V140H216.484V131.547H217.852ZM228.97 140.156C227.824 140.156 226.892 139.781 226.173 139.031C225.455 138.276 225.095 137.268 225.095 136.008V135.742C225.095 134.904 225.254 134.156 225.572 133.5C225.895 132.839 226.343 132.323 226.916 131.953C227.494 131.578 228.119 131.391 228.791 131.391C229.89 131.391 230.744 131.753 231.353 132.477C231.962 133.201 232.267 134.237 232.267 135.586V136.188H226.541C226.561 137.021 226.804 137.695 227.267 138.211C227.736 138.721 228.33 138.977 229.048 138.977C229.559 138.977 229.991 138.872 230.345 138.664C230.699 138.456 231.009 138.18 231.275 137.836L232.158 138.523C231.449 139.612 230.387 140.156 228.97 140.156ZM228.791 132.578C228.207 132.578 227.718 132.792 227.322 133.219C226.926 133.641 226.681 134.234 226.587 135H230.822V134.891C230.78 134.156 230.582 133.589 230.228 133.188C229.874 132.781 229.395 132.578 228.791 132.578ZM239.316 140C239.232 139.833 239.165 139.536 239.112 139.109C238.441 139.807 237.639 140.156 236.706 140.156C235.873 140.156 235.188 139.922 234.652 139.453C234.12 138.979 233.855 138.38 233.855 137.656C233.855 136.776 234.188 136.094 234.855 135.609C235.527 135.12 236.469 134.875 237.683 134.875H239.089V134.211C239.089 133.706 238.938 133.305 238.636 133.008C238.334 132.706 237.889 132.555 237.3 132.555C236.784 132.555 236.352 132.685 236.003 132.945C235.654 133.206 235.48 133.521 235.48 133.891H234.027C234.027 133.469 234.175 133.062 234.472 132.672C234.774 132.276 235.18 131.964 235.691 131.734C236.206 131.505 236.771 131.391 237.386 131.391C238.36 131.391 239.123 131.635 239.675 132.125C240.227 132.609 240.514 133.279 240.534 134.133V138.023C240.534 138.799 240.633 139.417 240.831 139.875V140H239.316ZM236.917 138.898C237.37 138.898 237.8 138.781 238.206 138.547C238.612 138.312 238.907 138.008 239.089 137.633V135.898H237.956C236.185 135.898 235.3 136.417 235.3 137.453C235.3 137.906 235.451 138.26 235.753 138.516C236.055 138.771 236.443 138.898 236.917 138.898ZM247.036 132.844C246.817 132.807 246.58 132.789 246.325 132.789C245.377 132.789 244.734 133.193 244.395 134V140H242.95V131.547H244.356L244.38 132.523C244.854 131.768 245.526 131.391 246.395 131.391C246.677 131.391 246.89 131.427 247.036 131.5V132.844ZM75.8609 150.547L75.9 151.484C76.5198 150.755 77.3557 150.391 78.4078 150.391C79.5901 150.391 80.3948 150.844 80.8219 151.75C81.1031 151.344 81.4677 151.016 81.9156 150.766C82.3688 150.516 82.9026 150.391 83.5172 150.391C85.3714 150.391 86.3141 151.372 86.3453 153.336V159H84.9V153.422C84.9 152.818 84.762 152.367 84.4859 152.07C84.2099 151.768 83.7464 151.617 83.0953 151.617C82.5589 151.617 82.1135 151.779 81.7594 152.102C81.4052 152.419 81.1995 152.849 81.1422 153.391V159H79.6891V153.461C79.6891 152.232 79.0875 151.617 77.8844 151.617C76.9365 151.617 76.288 152.021 75.9391 152.828V159H74.4938V150.547H75.8609ZM93.9016 159C93.8182 158.833 93.7505 158.536 93.6984 158.109C93.0266 158.807 92.2245 159.156 91.2922 159.156C90.4589 159.156 89.774 158.922 89.2375 158.453C88.7063 157.979 88.4406 157.38 88.4406 156.656C88.4406 155.776 88.774 155.094 89.4406 154.609C90.1125 154.12 91.0552 153.875 92.2688 153.875H93.675V153.211C93.675 152.706 93.524 152.305 93.2219 152.008C92.9198 151.706 92.4745 151.555 91.8859 151.555C91.3703 151.555 90.938 151.685 90.5891 151.945C90.2401 152.206 90.0656 152.521 90.0656 152.891H88.6125C88.6125 152.469 88.7609 152.062 89.0578 151.672C89.3599 151.276 89.7661 150.964 90.2766 150.734C90.7922 150.505 91.3573 150.391 91.9719 150.391C92.9458 150.391 93.7089 150.635 94.2609 151.125C94.813 151.609 95.0995 152.279 95.1203 153.133V157.023C95.1203 157.799 95.2193 158.417 95.4172 158.875V159H93.9016ZM91.5031 157.898C91.9563 157.898 92.3859 157.781 92.7922 157.547C93.1984 157.312 93.4927 157.008 93.675 156.633V154.898H92.5422C90.7714 154.898 89.8859 155.417 89.8859 156.453C89.8859 156.906 90.037 157.26 90.3391 157.516C90.6411 157.771 91.0292 157.898 91.5031 157.898ZM92.8391 147H94.5891L92.4953 149.297H91.3313L92.8391 147ZM100.372 153.633L102.247 150.547H103.934L101.169 154.727L104.02 159H102.348L100.395 155.836L98.4422 159H96.7625L99.6141 154.727L96.8484 150.547H98.5203L100.372 153.633ZM107.194 159H105.748V150.547H107.194V159ZM105.631 148.305C105.631 148.07 105.702 147.872 105.842 147.711C105.988 147.549 106.202 147.469 106.483 147.469C106.764 147.469 106.978 147.549 107.123 147.711C107.269 147.872 107.342 148.07 107.342 148.305C107.342 148.539 107.269 148.734 107.123 148.891C106.978 149.047 106.764 149.125 106.483 149.125C106.202 149.125 105.988 149.047 105.842 148.891C105.702 148.734 105.631 148.539 105.631 148.305ZM111.023 150.547L111.062 151.484C111.682 150.755 112.518 150.391 113.57 150.391C114.753 150.391 115.557 150.844 115.984 151.75C116.266 151.344 116.63 151.016 117.078 150.766C117.531 150.516 118.065 150.391 118.68 150.391C120.534 150.391 121.477 151.372 121.508 153.336V159H120.062V153.422C120.062 152.818 119.924 152.367 119.648 152.07C119.372 151.768 118.909 151.617 118.258 151.617C117.721 151.617 117.276 151.779 116.922 152.102C116.568 152.419 116.362 152.849 116.305 153.391V159H114.852V153.461C114.852 152.232 114.25 151.617 113.047 151.617C112.099 151.617 111.451 152.021 111.102 152.828V159H109.656V150.547H111.023ZM123.463 154.695C123.463 153.867 123.624 153.122 123.947 152.461C124.275 151.799 124.728 151.289 125.306 150.93C125.89 150.57 126.554 150.391 127.298 150.391C128.449 150.391 129.379 150.789 130.088 151.586C130.801 152.383 131.158 153.443 131.158 154.766V154.867C131.158 155.69 130.999 156.43 130.681 157.086C130.369 157.737 129.918 158.245 129.33 158.609C128.746 158.974 128.074 159.156 127.314 159.156C126.168 159.156 125.239 158.758 124.525 157.961C123.817 157.164 123.463 156.109 123.463 154.797V154.695ZM124.916 154.867C124.916 155.805 125.132 156.557 125.564 157.125C126.002 157.693 126.585 157.977 127.314 157.977C128.048 157.977 128.632 157.69 129.064 157.117C129.496 156.539 129.713 155.732 129.713 154.695C129.713 153.768 129.491 153.018 129.048 152.445C128.611 151.867 128.028 151.578 127.298 151.578C126.585 151.578 126.009 151.862 125.572 152.43C125.134 152.997 124.916 153.81 124.916 154.867ZM144.716 159H136.919V157.453L140.598 153.531C141.104 152.979 141.476 152.497 141.716 152.086C141.96 151.674 142.083 151.284 142.083 150.914C142.083 150.409 141.955 150.013 141.7 149.727C141.445 149.435 141.08 149.289 140.606 149.289C140.096 149.289 139.692 149.466 139.395 149.82C139.104 150.169 138.958 150.63 138.958 151.203H136.692C136.692 150.51 136.856 149.878 137.184 149.305C137.518 148.732 137.986 148.284 138.591 147.961C139.195 147.633 139.88 147.469 140.645 147.469C141.817 147.469 142.726 147.75 143.372 148.312C144.023 148.875 144.348 149.669 144.348 150.695C144.348 151.258 144.203 151.831 143.911 152.414C143.619 152.997 143.119 153.677 142.411 154.453L139.825 157.18H144.716V159ZM153.913 154.297C153.913 155.87 153.587 157.073 152.936 157.906C152.285 158.74 151.332 159.156 150.077 159.156C148.837 159.156 147.889 158.747 147.233 157.93C146.577 157.112 146.241 155.94 146.225 154.414V152.32C146.225 150.732 146.553 149.526 147.209 148.703C147.871 147.88 148.821 147.469 150.061 147.469C151.301 147.469 152.248 147.878 152.905 148.695C153.561 149.508 153.897 150.677 153.913 152.203V154.297ZM151.655 152C151.655 151.057 151.524 150.372 151.264 149.945C151.009 149.513 150.608 149.297 150.061 149.297C149.53 149.297 149.136 149.503 148.881 149.914C148.631 150.32 148.498 150.958 148.483 151.828V154.594C148.483 155.521 148.608 156.211 148.858 156.664C149.113 157.112 149.519 157.336 150.077 157.336C150.629 157.336 151.027 157.12 151.272 156.688C151.517 156.255 151.644 155.594 151.655 154.703V152ZM165.869 156.016C165.869 155.573 165.712 155.234 165.4 155C165.087 154.76 164.525 154.51 163.712 154.25C162.9 153.984 162.257 153.724 161.783 153.469C160.491 152.771 159.845 151.831 159.845 150.648C159.845 150.034 160.017 149.487 160.361 149.008C160.71 148.523 161.207 148.146 161.853 147.875C162.504 147.604 163.233 147.469 164.041 147.469C164.853 147.469 165.577 147.617 166.212 147.914C166.848 148.206 167.34 148.62 167.689 149.156C168.043 149.693 168.22 150.302 168.22 150.984H165.877C165.877 150.464 165.712 150.06 165.384 149.773C165.056 149.482 164.595 149.336 164.002 149.336C163.429 149.336 162.983 149.458 162.666 149.703C162.348 149.943 162.189 150.26 162.189 150.656C162.189 151.026 162.374 151.336 162.744 151.586C163.119 151.836 163.668 152.07 164.392 152.289C165.726 152.69 166.697 153.188 167.306 153.781C167.916 154.375 168.22 155.115 168.22 156C168.22 156.984 167.848 157.758 167.103 158.32C166.358 158.878 165.356 159.156 164.095 159.156C163.22 159.156 162.423 158.997 161.705 158.68C160.986 158.357 160.436 157.917 160.056 157.359C159.681 156.802 159.494 156.156 159.494 155.422H161.845C161.845 156.677 162.595 157.305 164.095 157.305C164.653 157.305 165.087 157.193 165.4 156.969C165.712 156.74 165.869 156.422 165.869 156.016ZM173.527 154.438L172.308 155.75V159H169.964V147.625H172.308V152.781L173.339 151.367L176.238 147.625H179.12L175.081 152.68L179.238 159H176.448L173.527 154.438ZM188.88 147.625V155.117C188.88 156.362 188.489 157.346 187.708 158.07C186.932 158.794 185.869 159.156 184.52 159.156C183.192 159.156 182.138 158.805 181.356 158.102C180.575 157.398 180.177 156.432 180.161 155.203V147.625H182.505V155.133C182.505 155.878 182.682 156.422 183.036 156.766C183.395 157.104 183.89 157.273 184.52 157.273C185.838 157.273 186.507 156.581 186.528 155.195V147.625H188.88ZM190.92 157.891C190.92 157.531 191.04 157.24 191.28 157.016C191.524 156.792 191.829 156.68 192.194 156.68C192.564 156.68 192.868 156.792 193.108 157.016C193.353 157.24 193.475 157.531 193.475 157.891C193.475 158.245 193.355 158.534 193.116 158.758C192.876 158.977 192.569 159.086 192.194 159.086C191.824 159.086 191.519 158.977 191.28 158.758C191.04 158.534 190.92 158.245 190.92 157.891Z" fill="black"/>
<path d="M160.94 29.6002C163.071 28.1252 165.877 30.3859 167.115 32.604C168.326 34.7724 168.695 38.0844 166.457 39.1549C159.757 42.3596 149.02 47.2978 147.244 48.1243C146.567 48.4391 144.818 47.5343 144.54 47.2301C143.632 46.2361 143.224 45.5888 143.023 44.2577C142.806 42.825 143.25 42.2023 143.623 41.8541C144.916 40.6486 155.163 33.5994 160.94 29.6002Z" fill="#FFBF00"/>
<path d="M126.779 17.6037C126.566 15.0187 129.923 13.7199 132.461 13.7575C134.943 13.7943 137.994 15.1334 137.803 17.6088C137.232 25.0192 136.147 36.7954 135.975 38.7485C135.91 39.4924 134.254 40.5549 133.852 40.6433C132.538 40.9323 131.774 40.9618 130.521 40.4694C129.173 39.9394 128.856 39.2431 128.741 38.7452C128.343 37.0217 127.356 24.6127 126.779 17.6037Z" fill="#FFBF00"/>
<path d="M98.1009 39.2032C95.757 38.0931 96.3088 34.5337 97.6084 32.3533C98.879 30.2216 101.561 28.2487 103.608 29.6536C109.738 33.8593 119.389 40.6973 120.994 41.8239C121.605 42.253 121.698 44.2203 121.574 44.6128C121.168 45.8959 120.812 46.5727 119.761 47.4114C118.629 48.3141 117.868 48.2405 117.38 48.0908C115.689 47.5728 104.456 42.213 98.1009 39.2032Z" fill="#FFBF00"/>
<path d="M92.3653 306.063C89.1567 306.063 86.5557 303.462 86.5557 300.254C86.5557 297.045 89.1567 294.444 92.3653 294.444C95.5738 294.444 98.1748 297.045 98.1748 300.254C98.1748 303.462 95.5738 306.063 92.3653 306.063Z" fill="#5D5360"/>
<path d="M94.3013 286.699V300.255C94.3013 301.324 93.4351 302.191 92.3648 302.191C91.2944 302.191 90.4282 301.324 90.4282 300.255V286.699H94.3013Z" fill="#AEA8AF"/>
<path d="M158.207 306.063C154.999 306.063 152.398 303.462 152.398 300.254C152.398 297.045 154.999 294.444 158.207 294.444C161.416 294.444 164.017 297.045 164.017 300.254C164.017 303.462 161.416 306.063 158.207 306.063Z" fill="#5D5360"/>
<path d="M160.143 286.699V300.255C160.143 301.324 159.276 302.191 158.206 302.191C157.136 302.191 156.27 301.324 156.27 300.255V286.699H160.143Z" fill="#AEA8AF"/>
<path d="M86.5553 284.763H162.057C162.717 284.763 163.303 284.448 163.668 283.897C164.033 283.347 164.097 282.683 163.84 282.075L155.741 262.84C156.959 262.406 158.185 261.998 159.395 261.535L167.411 280.573C168.167 282.37 167.974 284.415 166.894 286.04C165.816 287.666 164.006 288.636 162.057 288.636H86.5551C85.4847 288.636 84.6186 287.769 84.6186 286.699C84.6186 285.63 85.4847 284.763 86.5553 284.763Z" fill="#C0BCC1"/>
<path d="M76.9424 228.603L76.8026 224.731L91.0725 224.212L90.1237 212.419L93.9853 212.109L94.9479 224.07L110.23 223.514L109.89 210.743L113.763 210.639L114.102 223.373L129.846 222.799L130.76 207.97L134.626 208.208L133.735 222.658L150.433 222.05L153.429 205.968L157.238 206.677L154.401 221.905L171.69 221.275L171.83 225.147L153.674 225.808L150.69 241.82L165.996 242.16L165.909 246.031L149.972 245.677L146.835 262.516L143.026 261.807L146.047 245.59L132.34 245.286L131.377 260.918L127.511 260.679L128.465 245.2L114.675 244.893L115.054 259.112L111.181 259.216L110.797 244.807L96.5906 244.491L97.6536 257.702L93.792 258.012L92.6971 244.405L79.1737 244.105L79.2607 240.234L92.385 240.525L91.3832 228.077L76.9424 228.603ZM146.766 241.733L149.706 225.952L133.495 226.543L132.578 241.418L146.766 241.733ZM128.704 241.332L129.607 226.684L114.205 227.245L114.572 241.018L128.704 241.332ZM96.279 240.611L110.694 240.931L110.333 227.386L95.2589 227.936L96.279 240.611Z" fill="#C0BCC1"/>
<path d="M154.541 264.966C158.8 264.966 162.541 262.218 163.789 258.081L180.153 204.102C180.34 203.485 180.208 202.816 179.799 202.316C179.393 201.816 178.753 201.556 178.122 201.612L74.7583 211.183C74.2345 211.231 73.7522 211.492 73.4232 211.902C73.0941 212.313 72.9485 212.84 73.0167 213.362L78.2136 253.205C78.6863 256.834 81.6801 259.661 85.3279 259.929L153.813 264.94C154.057 264.957 154.301 264.966 154.541 264.966ZM175.611 205.734L160.082 256.96C159.29 259.586 156.792 261.289 154.097 261.076L85.6117 256.065C83.7868 255.932 82.2908 254.519 82.0525 252.703L77.1168 214.854L175.611 205.734Z" fill="#C9C6CA"/>
<path d="M183.215 205.199L193.866 194.548C195.378 193.036 195.378 190.584 193.866 189.071C192.353 187.558 189.901 187.558 188.388 189.071L177.737 199.722C176.225 201.235 176.225 203.687 177.737 205.199C179.25 206.712 181.702 206.712 183.215 205.199Z" fill="#E6646E"/>
<path d="M188.388 189.071C188.487 188.972 188.6 188.897 188.706 188.811C188.813 188.897 188.925 188.972 189.024 189.071C190.536 190.584 190.536 193.036 189.024 194.548L178.373 205.199C178.274 205.298 178.162 205.373 178.055 205.459C177.949 205.373 177.836 205.298 177.737 205.199C176.225 203.687 176.225 201.235 177.737 199.722L188.388 189.071Z" fill="#FF8087"/>
</svg>
