<svg width="301" height="75" viewBox="0 0 301 75" fill="none" xmlns="http://www.w3.org/2000/svg">
<g filter="url(#filter0_d)">
<path d="M10 14C10 9.58172 13.5817 6 18 6H283C287.418 6 291 9.58172 291 14V41C291 45.4183 287.418 49 283 49H18C13.5817 49 10 45.4183 10 41V14Z" fill="white"/>
<path d="M150.5 61L139.675 46H161.325L150.5 61Z" fill="white"/>
</g>
<path d="M28.832 28.416C28.832 31.616 31.408 34.16 34.608 34.16C36.032 34.16 37.36 33.568 38.416 32.608C38.528 32.496 38.56 32.272 38.432 32.176L38.064 31.808C37.936 31.68 37.808 31.664 37.648 31.792C36.8 32.512 35.984 32.992 34.592 32.992C32.064 32.992 30.128 30.864 30.128 28.4C30.128 25.92 32.064 23.792 34.592 23.792C35.76 23.792 36.816 24.272 37.648 24.992C37.808 25.152 37.936 25.168 38.064 25.008L38.496 24.576C38.624 24.448 38.608 24.256 38.48 24.128C37.392 23.2 36.224 22.64 34.608 22.64C31.408 22.64 28.832 25.216 28.832 28.416ZM40.4555 30.288C40.4555 32.4 42.1195 34.176 44.1675 34.176C46.2155 34.176 47.8795 32.4 47.8795 30.288C47.8795 28.208 46.2155 26.448 44.1675 26.448C42.1195 26.448 40.4555 28.208 40.4555 30.288ZM41.6235 30.288C41.6235 28.784 42.7115 27.52 44.1675 27.52C45.6235 27.52 46.6955 28.784 46.6955 30.288C46.6955 31.824 45.6235 33.104 44.1675 33.104C42.7115 33.104 41.6235 31.824 41.6235 30.288ZM50.3886 33.648C50.3886 33.84 50.5486 34 50.7406 34H51.2206C51.3966 34 51.5726 33.84 51.5726 33.648V28.544C51.5726 28.544 52.2446 27.52 53.5566 27.52C54.7566 27.52 55.2206 28.336 55.2206 29.744V33.648C55.2206 33.84 55.3966 34 55.5726 34H56.0526C56.2446 34 56.4046 33.84 56.4046 33.648V29.744C56.4046 29.36 56.3726 28.848 56.3086 28.528C56.5806 28.304 57.2526 27.52 58.4526 27.52C59.5726 27.52 60.0206 28.368 60.0206 29.744V33.648C60.0206 33.84 60.1806 34 60.3726 34H60.8526C61.0446 34 61.2046 33.84 61.2046 33.648V29.744C61.2046 27.84 60.6926 26.448 58.5486 26.448C57.0606 26.448 56.0046 27.552 55.9086 27.616C55.4286 26.848 54.8366 26.448 53.7326 26.448C52.6606 26.448 51.8926 26.928 51.4446 27.376C51.3966 26.896 51.1406 26.544 50.6766 26.544C50.5006 26.544 50.3886 26.656 50.3886 26.832V33.648ZM64.123 33.648C64.123 33.84 64.283 34 64.475 34H64.955C65.131 34 65.307 33.84 65.307 33.648V26.96C65.307 26.784 65.131 26.608 64.955 26.608H64.475C64.283 26.608 64.123 26.784 64.123 26.96V33.648ZM64.683 24.704C65.179 24.704 65.563 24.304 65.563 23.84C65.563 23.328 65.179 22.944 64.683 22.944C64.203 22.944 63.819 23.328 63.819 23.84C63.819 24.304 64.203 24.704 64.683 24.704ZM67.8465 30.304C67.8465 32.416 69.1905 34.176 71.4305 34.176C72.7105 34.176 73.6865 33.68 74.1345 33.328C74.4065 33.12 74.3425 33.04 74.1985 32.816L74.0065 32.544C73.8145 32.256 73.7025 32.32 73.4465 32.496C73.0305 32.768 72.4225 33.104 71.4465 33.104C70.1025 33.104 69.0625 31.808 69.0305 30.576H74.4065C74.5665 30.576 74.7265 30.448 74.7425 30.256C74.7585 30.128 74.7745 29.936 74.7745 29.808C74.7745 27.872 73.3665 26.448 71.4305 26.448C69.1905 26.448 67.8465 28.224 67.8465 30.304ZM69.0465 29.632C69.1905 28.48 70.1825 27.52 71.4305 27.52C72.6945 27.52 73.5585 28.544 73.5905 29.632H69.0465ZM77.2168 33.648C77.2168 33.84 77.3768 34 77.5688 34H78.0488C78.2248 34 78.4008 33.84 78.4008 33.648V28.544C78.4008 28.544 79.2808 27.52 80.6727 27.52C81.7608 27.52 82.2408 28.176 82.2408 29.584V33.648C82.2408 33.84 82.4008 34 82.5928 34H83.0728C83.2488 34 83.4248 33.84 83.4248 33.648V29.744C83.4248 27.84 82.8968 26.448 80.7528 26.448C79.6008 26.448 78.7368 26.976 78.2728 27.376C78.2248 26.896 77.9688 26.544 77.5048 26.544C77.3288 26.544 77.2168 26.656 77.2168 26.832V33.648ZM85.7018 33.648C85.7018 33.84 85.8618 34 86.0538 34H90.4698C90.6938 34 90.8218 33.84 90.8218 33.648V33.344C90.8218 33.12 90.6938 32.992 90.4698 32.992H87.3818V32.944L91.1578 27.12C91.2058 27.056 91.2218 26.992 91.2218 26.928C91.2218 26.736 91.1258 26.608 90.8858 26.608H86.1978C86.0218 26.608 85.8938 26.752 85.8938 26.96V27.264C85.8938 27.456 86.0218 27.616 86.1978 27.616H89.5418V27.664L85.7978 33.328C85.7338 33.424 85.7018 33.504 85.7018 33.616V33.648ZM92.8908 31.76C92.8908 33.248 93.8828 34.176 95.1788 34.176C96.3307 34.176 97.1148 33.6 97.4988 33.2C97.5468 33.696 97.8028 34.064 98.2828 34.064C98.4588 34.064 98.5708 33.952 98.5708 33.776V29.552C98.5708 27.568 97.6908 26.448 95.8028 26.448C94.7788 26.448 94.1068 26.768 93.7388 26.928C93.5628 27.008 93.4508 27.104 93.5148 27.328L93.6748 27.76C93.7388 27.936 93.8348 28.032 94.0268 27.952C94.3628 27.84 94.9228 27.52 95.7388 27.52C96.7948 27.52 97.4508 28.192 97.4348 29.552C97.4348 29.552 96.6348 29.312 95.8508 29.312C93.9468 29.312 92.8908 30.352 92.8908 31.76ZM94.0588 31.76C94.0588 30.816 94.8268 30.32 95.8508 30.32C96.5868 30.32 97.1788 30.48 97.4188 30.608V32.112C97.0988 32.592 96.2988 33.104 95.3868 33.104C94.5707 33.104 94.0588 32.512 94.0588 31.76ZM105.266 31.76C105.266 33.248 106.258 34.176 107.554 34.176C108.706 34.176 109.49 33.6 109.874 33.2C109.922 33.696 110.178 34.064 110.658 34.064C110.834 34.064 110.946 33.952 110.946 33.776V29.552C110.946 27.568 110.066 26.448 108.178 26.448C107.154 26.448 106.482 26.768 106.114 26.928C105.938 27.008 105.826 27.104 105.89 27.328L106.05 27.76C106.114 27.936 106.21 28.032 106.402 27.952C106.738 27.84 107.298 27.52 108.114 27.52C109.17 27.52 109.826 28.192 109.81 29.552C109.81 29.552 109.01 29.312 108.226 29.312C106.322 29.312 105.266 30.352 105.266 31.76ZM106.434 31.76C106.434 30.816 107.202 30.32 108.226 30.32C108.962 30.32 109.554 30.48 109.794 30.608V32.112C109.474 32.592 108.674 33.104 107.762 33.104C106.946 33.104 106.434 32.512 106.434 31.76ZM117.753 30.304C117.753 32.416 119.097 34.176 121.337 34.176C122.617 34.176 123.593 33.68 124.041 33.328C124.313 33.12 124.249 33.04 124.105 32.816L123.913 32.544C123.721 32.256 123.609 32.32 123.353 32.496C122.937 32.768 122.329 33.104 121.353 33.104C120.009 33.104 118.969 31.808 118.937 30.576H124.313C124.473 30.576 124.633 30.448 124.649 30.256C124.665 30.128 124.681 29.936 124.681 29.808C124.681 27.872 123.273 26.448 121.337 26.448C119.097 26.448 117.753 28.224 117.753 30.304ZM118.953 29.632C119.097 28.48 120.089 27.52 121.337 27.52C122.601 27.52 123.465 28.544 123.497 29.632H118.953ZM129.187 34.176C130.691 34.176 131.699 33.232 131.699 32.064C131.699 30.72 130.595 30.24 129.315 29.648C128.419 29.232 127.907 28.992 127.907 28.336C127.907 27.984 128.179 27.52 128.995 27.52C129.683 27.52 130.195 27.76 130.515 27.952C130.675 28.048 130.915 28.032 131.027 27.824L131.187 27.52C131.299 27.312 131.267 27.152 131.107 27.024C130.755 26.768 129.955 26.448 128.995 26.448C127.283 26.448 126.707 27.616 126.707 28.384C126.707 29.648 127.827 30.176 128.803 30.656C129.875 31.184 130.451 31.472 130.451 32.176C130.451 32.752 129.939 33.104 129.187 33.104C128.243 33.104 127.603 32.64 127.347 32.448C127.139 32.304 127.011 32.368 126.915 32.544L126.691 32.96C126.627 33.088 126.659 33.2 126.739 33.28C127.123 33.632 127.955 34.176 129.187 34.176ZM133.643 30.32C133.643 32.544 135.179 34.176 137.371 34.176C138.603 34.176 139.595 33.504 140.155 32.688C140.283 32.496 140.219 32.336 140.059 32.176L139.963 32.08C139.755 31.872 139.547 31.808 139.339 32.048C138.923 32.528 138.443 33.104 137.323 33.104C135.947 33.104 134.843 31.872 134.843 30.304C134.843 28.768 135.963 27.52 137.371 27.52C138.123 27.52 138.715 27.744 139.227 28.32C139.371 28.48 139.515 28.64 139.755 28.432L140.011 28.192C140.187 28.048 140.219 27.84 140.075 27.664C139.387 26.88 138.491 26.448 137.387 26.448C135.243 26.448 133.643 28.144 133.643 30.32ZM142.047 31.76C142.047 33.248 143.039 34.176 144.335 34.176C145.487 34.176 146.271 33.6 146.655 33.2C146.703 33.696 146.959 34.064 147.439 34.064C147.615 34.064 147.727 33.952 147.727 33.776V29.552C147.727 27.568 146.847 26.448 144.959 26.448C143.935 26.448 143.263 26.768 142.895 26.928C142.719 27.008 142.607 27.104 142.671 27.328L142.831 27.76C142.895 27.936 142.991 28.032 143.183 27.952C143.519 27.84 144.079 27.52 144.895 27.52C145.951 27.52 146.607 28.192 146.591 29.552C146.591 29.552 145.791 29.312 145.007 29.312C143.103 29.312 142.047 30.352 142.047 31.76ZM143.215 31.76C143.215 30.816 143.983 30.32 145.007 30.32C145.743 30.32 146.335 30.48 146.575 30.608V32.112C146.255 32.592 145.455 33.104 144.543 33.104C143.727 33.104 143.215 32.512 143.215 31.76ZM150.654 33.648C150.654 33.84 150.814 34 151.006 34H151.486C151.662 34 151.838 33.84 151.838 33.648V28.544C151.838 28.544 152.718 27.52 154.11 27.52C155.198 27.52 155.678 28.176 155.678 29.584V33.648C155.678 33.84 155.838 34 156.03 34H156.51C156.686 34 156.862 33.84 156.862 33.648V29.744C156.862 27.84 156.334 26.448 154.19 26.448C153.038 26.448 152.174 26.976 151.71 27.376C151.662 26.896 151.406 26.544 150.942 26.544C150.766 26.544 150.654 26.656 150.654 26.832V33.648ZM159.315 30.304C159.315 32.416 160.659 34.176 162.899 34.176C164.179 34.176 165.155 33.68 165.603 33.328C165.875 33.12 165.811 33.04 165.667 32.816L165.475 32.544C165.283 32.256 165.171 32.32 164.915 32.496C164.499 32.768 163.891 33.104 162.915 33.104C161.571 33.104 160.531 31.808 160.499 30.576H165.875C166.035 30.576 166.195 30.448 166.211 30.256C166.227 30.128 166.243 29.936 166.243 29.808C166.243 27.872 164.835 26.448 162.899 26.448C160.659 26.448 159.315 28.224 159.315 30.304ZM160.515 29.632C160.659 28.48 161.651 27.52 162.899 27.52C164.163 27.52 165.027 28.544 165.059 29.632H160.515ZM168.11 31.76C168.11 33.248 169.102 34.176 170.398 34.176C171.549 34.176 172.334 33.6 172.718 33.2C172.766 33.696 173.022 34.064 173.502 34.064C173.678 34.064 173.79 33.952 173.79 33.776V29.552C173.79 27.568 172.91 26.448 171.022 26.448C169.998 26.448 169.326 26.768 168.958 26.928C168.782 27.008 168.67 27.104 168.734 27.328L168.894 27.76C168.958 27.936 169.054 28.032 169.246 27.952C169.582 27.84 170.142 27.52 170.958 27.52C172.014 27.52 172.67 28.192 172.654 29.552C172.654 29.552 171.854 29.312 171.07 29.312C169.166 29.312 168.11 30.352 168.11 31.76ZM169.278 31.76C169.278 30.816 170.046 30.32 171.07 30.32C171.806 30.32 172.398 30.48 172.638 30.608V32.112C172.318 32.592 171.518 33.104 170.606 33.104C169.789 33.104 169.278 32.512 169.278 31.76ZM176.717 33.648C176.717 33.84 176.877 34 177.069 34H177.549C177.725 34 177.901 33.84 177.901 33.648V28.528C177.901 28.528 178.477 27.584 179.901 27.584C180.253 27.584 180.525 27.712 180.701 27.792C180.877 27.872 181.053 27.856 181.133 27.616L181.341 27.04C181.517 26.528 180.605 26.448 180.045 26.448C178.893 26.448 178.173 26.96 177.773 27.376C177.725 26.896 177.469 26.544 177.005 26.544C176.829 26.544 176.717 26.656 176.717 26.832V33.648ZM188.541 33.568C188.541 33.568 189.357 34.176 190.589 34.176C192.621 34.176 194.077 32.464 194.077 30.304C194.077 28.192 192.653 26.448 190.637 26.448C189.645 26.448 188.861 26.848 188.397 27.216C188.317 26.816 188.061 26.544 187.661 26.544C187.485 26.544 187.373 26.656 187.373 26.832V37.456C187.373 37.648 187.533 37.808 187.725 37.808H188.189C188.365 37.808 188.541 37.648 188.541 37.456V33.568ZM188.541 28.416C188.541 28.416 189.309 27.52 190.493 27.52C191.981 27.52 192.877 28.848 192.877 30.288C192.877 31.904 191.837 33.104 190.413 33.104C189.389 33.104 188.541 32.464 188.541 32.464V28.416ZM196.607 33.648C196.607 33.84 196.767 34 196.959 34H197.439C197.615 34 197.791 33.84 197.791 33.648V28.528C197.791 28.528 198.367 27.584 199.791 27.584C200.143 27.584 200.415 27.712 200.591 27.792C200.767 27.872 200.943 27.856 201.023 27.616L201.231 27.04C201.407 26.528 200.495 26.448 199.935 26.448C198.783 26.448 198.063 26.96 197.663 27.376C197.615 26.896 197.359 26.544 196.895 26.544C196.719 26.544 196.607 26.656 196.607 26.832V33.648ZM202.565 30.288C202.565 32.4 204.229 34.176 206.277 34.176C208.325 34.176 209.989 32.4 209.989 30.288C209.989 28.208 208.325 26.448 206.277 26.448C204.229 26.448 202.565 28.208 202.565 30.288ZM203.733 30.288C203.733 28.784 204.821 27.52 206.277 27.52C207.733 27.52 208.805 28.784 208.805 30.288C208.805 31.824 207.733 33.104 206.277 33.104C204.821 33.104 203.733 31.824 203.733 30.288ZM212.034 30.288C212.034 32.4 213.474 34.176 215.346 34.176C216.322 34.176 217.17 33.68 217.682 33.232C217.746 33.712 218.002 34.064 218.466 34.064C218.642 34.064 218.754 33.952 218.754 33.776V23.152C218.754 22.976 218.578 22.8 218.386 22.8H217.938C217.746 22.8 217.586 22.976 217.586 23.152V26.912C217.586 26.912 216.754 26.448 215.538 26.448C213.314 26.448 212.034 28.128 212.034 30.288ZM213.234 30.304C213.234 28.832 214.114 27.52 215.698 27.52C216.722 27.52 217.586 27.936 217.586 27.936V31.92C217.586 31.92 216.818 33.104 215.49 33.104C214.146 33.104 213.234 31.744 213.234 30.304ZM221.668 30.944C221.668 32.896 222.18 34.176 224.308 34.176C225.492 34.176 226.164 33.664 226.596 33.216C226.644 33.712 226.9 34.064 227.38 34.064C227.556 34.064 227.668 33.952 227.668 33.776V26.96C227.668 26.784 227.508 26.608 227.332 26.608H226.836C226.644 26.608 226.5 26.784 226.5 26.96V32.032C226.164 32.416 225.508 33.104 224.404 33.104C223.332 33.104 222.852 32.432 222.852 30.96V26.96C222.852 26.784 222.692 26.608 222.5 26.608H222.02C221.812 26.608 221.668 26.784 221.668 26.96V30.944ZM230.19 30.32C230.19 32.544 231.726 34.176 233.918 34.176C235.15 34.176 236.142 33.504 236.702 32.688C236.83 32.496 236.766 32.336 236.606 32.176L236.51 32.08C236.302 31.872 236.094 31.808 235.886 32.048C235.47 32.528 234.99 33.104 233.87 33.104C232.494 33.104 231.39 31.872 231.39 30.304C231.39 28.768 232.51 27.52 233.918 27.52C234.67 27.52 235.262 27.744 235.774 28.32C235.918 28.48 236.062 28.64 236.302 28.432L236.558 28.192C236.734 28.048 236.766 27.84 236.622 27.664C235.934 26.88 235.038 26.448 233.934 26.448C231.79 26.448 230.19 28.144 230.19 30.32ZM239.65 27.632V32C239.65 33.152 240.386 34.176 241.682 34.176C242.434 34.176 243.074 33.92 243.426 33.728C243.618 33.616 243.65 33.488 243.554 33.248L243.426 32.928C243.362 32.752 243.25 32.608 242.962 32.784C242.658 32.96 242.274 33.104 241.826 33.104C241.314 33.104 240.834 32.768 240.834 32V27.632H243.01C243.218 27.632 243.378 27.472 243.378 27.28V26.96C243.378 26.752 243.218 26.608 243.01 26.608H240.834V24.528C240.834 24.336 240.69 24.16 240.498 24.176L240.002 24.208C239.826 24.224 239.65 24.368 239.65 24.56V26.608H238.674C238.45 26.608 238.306 26.752 238.306 26.96V27.28C238.306 27.472 238.45 27.632 238.674 27.632H239.65ZM245.252 30.288C245.252 32.4 246.916 34.176 248.964 34.176C251.012 34.176 252.676 32.4 252.676 30.288C252.676 28.208 251.012 26.448 248.964 26.448C246.916 26.448 245.252 28.208 245.252 30.288ZM246.42 30.288C246.42 28.784 247.508 27.52 248.964 27.52C250.42 27.52 251.492 28.784 251.492 30.288C251.492 31.824 250.42 33.104 248.964 33.104C247.508 33.104 246.42 31.824 246.42 30.288ZM257.25 34.176C258.754 34.176 259.762 33.232 259.762 32.064C259.762 30.72 258.658 30.24 257.378 29.648C256.482 29.232 255.97 28.992 255.97 28.336C255.97 27.984 256.242 27.52 257.058 27.52C257.746 27.52 258.258 27.76 258.578 27.952C258.738 28.048 258.978 28.032 259.09 27.824L259.25 27.52C259.362 27.312 259.33 27.152 259.17 27.024C258.818 26.768 258.018 26.448 257.058 26.448C255.346 26.448 254.77 27.616 254.77 28.384C254.77 29.648 255.89 30.176 256.866 30.656C257.938 31.184 258.514 31.472 258.514 32.176C258.514 32.752 258.002 33.104 257.25 33.104C256.306 33.104 255.666 32.64 255.41 32.448C255.202 32.304 255.074 32.368 254.978 32.544L254.754 32.96C254.69 33.088 254.722 33.2 254.802 33.28C255.186 33.632 256.018 34.176 257.25 34.176Z" fill="black"/>
<defs>
<filter id="filter0_d" x="0" y="0" width="301" height="75" filterUnits="userSpaceOnUse" color-interpolation-filters="sRGB">
<feFlood flood-opacity="0" result="BackgroundImageFix"/>
<feColorMatrix in="SourceAlpha" type="matrix" values="0 0 0 0 0 0 0 0 0 0 0 0 0 0 0 0 0 0 127 0"/>
<feOffset dy="4"/>
<feGaussianBlur stdDeviation="5"/>
<feColorMatrix type="matrix" values="0 0 0 0 0 0 0 0 0 0 0 0 0 0 0 0 0 0 0.1 0"/>
<feBlend mode="normal" in2="BackgroundImageFix" result="effect1_dropShadow"/>
<feBlend mode="normal" in="SourceGraphic" in2="effect1_dropShadow" result="shape"/>
</filter>
</defs>
</svg>
